<svg width="40" height="40" viewBox="0 0 40 40" fill="none" xmlns="http://www.w3.org/2000/svg">
<path fill-rule="evenodd" clip-rule="evenodd" d="M34.4888 23.882C35.0642 21.7349 35.1432 19.5717 34.7963 17.5142C34.3318 19.0042 33.5028 20.2913 32.4338 21.3015L32.4327 21.3123C31.6327 22.1002 30.6895 22.7302 29.6526 23.1675C28.4876 23.659 27.2312 23.896 25.9673 23.8628C24.7034 23.8297 23.461 23.5269 22.3235 22.975C21.186 22.4232 20.1794 21.6347 19.371 20.6625C18.5627 19.6903 17.9713 18.5567 17.6363 17.3375C17.3012 16.1183 17.2304 14.8417 17.4284 13.5929C17.6264 12.3442 18.0888 11.1521 18.7847 10.0964C19.4337 9.11172 20.2717 8.26685 21.2494 7.61039C22.496 6.7392 23.9617 6.19009 25.507 6.04584C24.982 5.83942 24.44 5.66039 23.8823 5.51093C15.8803 3.3668 7.65518 8.11554 5.51105 16.1175C3.36693 24.1195 8.11566 32.3445 16.1177 34.4887C24.1197 36.6328 32.3447 31.884 34.4888 23.882ZM31.3077 25.3328C28.7819 30.7043 22.6997 33.6642 16.7647 32.0739C10.0964 30.2872 6.13909 23.4329 7.92586 16.7645C9.1598 12.1595 12.8105 8.84733 17.1478 7.82707C16.9423 8.08687 16.7478 8.35587 16.5649 8.6334C15.6609 10.0051 15.06 11.554 14.8028 13.1765C14.5454 14.799 14.6375 16.4578 15.0728 18.0419C15.508 19.626 16.2765 21.0989 17.3269 22.3622C18.3772 23.6253 19.685 24.6498 21.163 25.3668C22.6412 26.0839 24.2551 26.4773 25.8974 26.5204C27.5396 26.5635 29.1723 26.2555 30.6859 25.617C30.8962 25.5283 31.1035 25.4335 31.3077 25.3328ZM32.3254 10.7675L31.6699 8.74992L31.0143 10.7675H28.8929L30.6092 12.0145L29.9537 14.0322L31.6699 12.7852L33.3862 14.0322L32.7307 12.0145L34.4469 10.7675H32.3254ZM24.1699 8.74992L24.8254 10.7675H26.9469L25.2307 12.0145L25.8862 14.0322L24.1699 12.7852L22.4537 14.0322L23.1092 12.0145L21.3929 10.7675H23.5143L24.1699 8.74992ZM28.5754 15.7675L27.9199 13.7499L27.2643 15.7675H25.1429L26.8592 17.0145L26.2037 19.0322L27.9199 17.7852L29.6362 19.0322L28.9807 17.0145L30.6969 15.7675H28.5754Z" fill="url(#paint0_linear_162_1058)"/>
<defs>
<linearGradient id="paint0_linear_162_1058" x1="23.8823" y1="5.51093" x2="16.1176" y2="34.4887" gradientUnits="userSpaceOnUse">
<stop stop-color="#F5BD52"/>
<stop offset="1" stop-color="#F5DA79"/>
</linearGradient>
</defs>
</svg>
