<svg width="32" height="32" viewBox="0 0 32 32" fill="none" xmlns="http://www.w3.org/2000/svg">
<path fill-rule="evenodd" clip-rule="evenodd" d="M28.1115 11.5897C27.0473 12.6446 25.6171 13.2598 24.1106 13.3088C22.5818 13.3586 21.0927 12.8215 19.9542 11.8097C18.8157 10.7979 18.1158 9.38965 18.0006 7.879C17.8876 6.39555 18.3469 4.92597 19.2842 3.7661C19.7855 3.16328 20.4062 2.66094 21.1107 2.29432C20.2726 2.10178 19.3994 2 18.5022 2C12.1522 2 7.00439 7.09853 7.00439 13.3879C7.00439 14.7731 7.25411 16.1006 7.7114 17.3285C8.25526 16.9409 8.86207 16.6344 9.51373 16.427C9.18346 15.473 9.00439 14.4504 9.00439 13.3879C9.00439 8.8319 12.2967 5.01112 16.6841 4.17153C16.1329 5.36909 15.889 6.69493 15.9907 8.02914C16.145 10.0531 17.0828 11.9399 18.6082 13.2955C20.1335 14.6511 22.1286 15.3707 24.1769 15.3041C25.5231 15.2603 26.8239 14.8791 27.964 14.2107C27.6 18.3461 24.5181 21.7314 20.4722 22.5739C20.8952 23.1027 21.1848 23.7408 21.2906 24.4386C26.2933 23.2043 30.0001 18.7249 30.0001 13.3879C30.0001 12.0922 29.7816 10.8471 29.3792 9.68667C29.0847 10.4023 28.6511 11.0476 28.1115 11.5897Z" fill="url(#paint0_linear_28_314)"/>
<path fill-rule="evenodd" clip-rule="evenodd" d="M9.50276 27.9909L9.52344 27.9909V27.9914H12.9902C12.9905 27.9919 12.9908 27.9923 12.9911 27.9927H12.9983C12.9979 27.9923 12.9976 27.9919 12.9973 27.9914H16.7741C16.7799 27.9919 16.7857 27.9923 16.7915 27.9927H17.0026V28.0002C17.0035 28.0002 17.0043 28.0002 17.0052 28.0002C18.6632 28.0002 20.0069 26.6563 20.0069 24.999C20.0069 23.3416 18.6632 21.9978 17.0052 21.9978C16.2369 21.9978 15.5361 22.2864 15.0052 22.761C15.0076 22.6945 15.0088 22.6277 15.0088 22.5606C15.0088 21.8914 14.887 21.2504 14.6642 20.6581L14.6588 20.661C13.8808 18.6057 11.8761 17.1294 9.50276 17.1294C6.44564 17.1294 4.00024 19.5789 4.00024 22.5602C4.00024 25.5414 6.44564 27.9909 9.50276 27.9909ZM16.7291 29.9927C16.8205 29.9977 16.9126 30.0002 17.0052 30.0002C19.7676 30.0002 22.0069 27.7611 22.0069 24.999C22.0069 22.2369 19.7676 19.9978 17.0052 19.9978C16.8534 19.9978 16.7031 20.0045 16.5547 20.0178C15.5063 17.1659 12.7447 15.1294 9.50276 15.1294C5.35924 15.1294 2.00024 18.4563 2.00024 22.5602C2.00024 26.6641 5.35924 29.9909 9.50276 29.9909C9.50485 29.9909 9.50694 29.9909 9.50903 29.9909V29.9927L16.7291 29.9927Z" fill="url(#paint1_linear_28_314)"/>
<defs>
<linearGradient id="paint0_linear_28_314" x1="18.5022" y1="2" x2="18.5022" y2="24.4386" gradientUnits="userSpaceOnUse">
<stop stop-color="#F5BD52"/>
<stop offset="1" stop-color="#F5DA79"/>
</linearGradient>
<linearGradient id="paint1_linear_28_314" x1="12.0036" y1="15.1294" x2="12.0036" y2="30.0002" gradientUnits="userSpaceOnUse">
<stop stop-color="#B2D4F7"/>
<stop offset="1" stop-color="#D9E2F3"/>
</linearGradient>
</defs>
</svg>

