<svg width="40" height="40" viewBox="0 0 40 40" fill="none" xmlns="http://www.w3.org/2000/svg">
<path fill-rule="evenodd" clip-rule="evenodd" d="M35.1394 14.4871C33.8091 15.8057 32.0214 16.5747 30.1383 16.636C28.2273 16.6982 26.3659 16.0269 24.9428 14.7621C23.5196 13.4974 22.6448 11.7371 22.5008 9.84875C22.3595 7.99444 22.9336 6.15746 24.1053 4.70762C24.7319 3.9541 25.5078 3.32618 26.3884 2.8679C25.3408 2.62723 24.2493 2.5 23.1278 2.5C15.1903 2.5 8.75549 8.87316 8.75549 16.7349C8.75549 18.4664 9.06764 20.1258 9.63926 21.6606C10.3191 21.1761 11.0776 20.793 11.8922 20.5338C11.4793 19.3413 11.2555 18.063 11.2555 16.7349C11.2555 11.0399 15.3709 6.2639 20.8551 5.21441C20.1661 6.71136 19.8613 8.36866 19.9884 10.0364C20.1813 12.5664 21.3535 14.9249 23.2603 16.6194C25.1669 18.3139 27.6608 19.2134 30.2211 19.1301C31.9039 19.0754 33.5299 18.5989 34.955 17.7634C34.5 22.9326 30.6476 27.1643 25.5903 28.2174C26.119 28.8784 26.481 29.676 26.6133 30.5483C32.8666 29.0054 37.5001 23.4061 37.5001 16.7349C37.5001 15.1153 37.227 13.5589 36.724 12.1083C36.3559 13.0029 35.8139 13.8095 35.1394 14.4871Z" fill="url(#paint0_linear_162_1055)"/>
<path fill-rule="evenodd" clip-rule="evenodd" d="M11.8785 34.9887H11.9043V34.9894H16.2378C16.2381 34.99 16.2385 34.9905 16.2389 34.991H16.2479C16.2474 34.9905 16.247 34.99 16.2466 34.9894H20.9676C20.9749 34.99 20.9821 34.9905 20.9894 34.991H21.2533V35.0004C21.2544 35.0004 21.2554 35.0004 21.2565 35.0004C23.329 35.0004 25.0086 33.3205 25.0086 31.2489C25.0086 29.1771 23.329 27.4974 21.2565 27.4974C20.2961 27.4974 19.4201 27.8581 18.7565 28.4514C18.7595 28.3682 18.761 28.2847 18.761 28.2009C18.761 27.3644 18.6088 26.5631 18.3303 25.8227L18.3235 25.8264C17.351 23.2572 14.8451 21.4119 11.8785 21.4119C8.05705 21.4119 5.0003 24.4737 5.0003 28.2004C5.0003 31.9269 8.05705 34.9887 11.8785 34.9887ZM20.9114 37.491C21.0256 37.4972 21.1408 37.5004 21.2565 37.5004C24.7095 37.5004 27.5086 34.7015 27.5086 31.2489C27.5086 27.7962 24.7095 24.9974 21.2565 24.9974C21.0668 24.9974 20.8789 25.0057 20.6934 25.0224C19.3829 21.4575 15.9309 18.9119 11.8785 18.9119C6.69905 18.9119 2.50031 23.0705 2.50031 28.2004C2.50031 33.3302 6.69905 37.4887 11.8785 37.4887C11.8811 37.4887 11.8837 37.4887 11.8863 37.4887V37.491H20.9114Z" fill="url(#paint1_linear_162_1055)"/>
<defs>
<linearGradient id="paint0_linear_162_1055" x1="23.1278" y1="2.5" x2="23.1278" y2="30.5483" gradientUnits="userSpaceOnUse">
<stop stop-color="#F5BD52"/>
<stop offset="1" stop-color="#F5DA79"/>
</linearGradient>
<linearGradient id="paint1_linear_162_1055" x1="15.0045" y1="18.9119" x2="15.0045" y2="37.5004" gradientUnits="userSpaceOnUse">
<stop stop-color="#B2D4F7"/>
<stop offset="1" stop-color="#D9E2F3"/>
</linearGradient>
</defs>
</svg>
