<svg width="40" height="40" viewBox="0 0 40 40" fill="none" xmlns="http://www.w3.org/2000/svg">
<path fill-rule="evenodd" clip-rule="evenodd" d="M34.1434 21.6921C33.4893 21.115 32.7124 20.6684 31.8559 20.3939C33.4908 19.0285 34.6104 17.1058 34.916 14.9478C34.823 14.9891 34.7291 15.0287 34.6348 15.0666C34.5574 15.0976 34.4795 15.1275 34.4011 15.156C33.383 15.5277 32.289 15.6946 31.1853 15.6356L31.1623 15.6342C29.2024 15.5239 27.3531 14.7086 25.9705 13.3451L25.9608 13.3355C24.7081 12.096 23.9214 10.4856 23.7169 8.76569C23.6946 8.5783 23.6793 8.38961 23.671 8.19996C23.6258 7.16386 23.793 6.13892 24.1533 5.18212C20.9696 5.82245 18.4314 8.09032 17.4396 11.014C16.6246 10.8334 15.7808 10.7268 14.9161 10.7019C16.2751 5.96971 20.7204 2.5 25.9945 2.5C27.215 2.5 28.3911 2.68581 29.4949 3.03009C28.479 3.44909 27.6214 4.16105 27.0335 5.05725C27.027 5.05653 27.0204 5.0558 27.0138 5.05509C26.4353 5.95936 26.1459 7.01868 26.1929 8.09564C26.1983 8.21751 26.2079 8.33881 26.2216 8.45935C26.3564 9.63729 26.8914 10.7413 27.7461 11.5915L27.7559 11.6011C28.7041 12.5394 29.9754 13.0991 31.3221 13.1711L31.3451 13.1724C32.1564 13.2124 32.9594 13.0738 33.6979 12.7743C34.1781 12.5795 34.631 12.3168 35.041 11.991L35.0428 11.993C35.8001 11.3886 36.3866 10.5885 36.7209 9.6719C37.2241 10.9363 37.5001 12.3116 37.5001 13.75C37.5001 16.85 36.2178 19.6573 34.1434 21.6921Z" fill="url(#paint0_linear_162_1060)"/>
<path fill-rule="evenodd" clip-rule="evenodd" d="M15.6253 35L15.6921 34.9997V35H28.7503V34.9999C32.0938 34.9999 35.0003 32.126 35.0003 28.3332C35.0003 24.5405 32.0938 21.6666 28.7503 21.6666C27.8373 21.6666 26.9568 21.8809 26.1591 22.2697C26.0523 21.4085 25.8534 20.578 25.5733 19.7895L25.5761 19.7884C24.049 15.4839 20.108 12.5 15.6253 12.5C9.86561 12.5 5.0003 17.4259 5.0003 23.75C5.0003 30.0741 9.86561 35 15.6253 35ZM28.7503 37.4999C33.5828 37.4999 37.5003 33.3959 37.5003 28.3332C37.5003 23.2706 33.5828 19.1666 28.7503 19.1666C28.5024 19.1666 28.2569 19.1774 28.0141 19.1985C26.221 13.8414 21.3514 10 15.6253 10C8.37657 10 2.50031 16.1561 2.50031 23.75C2.50031 31.3439 8.37657 37.5 15.6253 37.5C15.6371 37.5 15.6489 37.5 15.6606 37.5H28.7503V37.4999Z" fill="url(#paint1_linear_162_1060)"/>
<defs>
<linearGradient id="paint0_linear_162_1060" x1="26.2081" y1="2.5" x2="26.2081" y2="21.6921" gradientUnits="userSpaceOnUse">
<stop stop-color="#F5BD52"/>
<stop offset="1" stop-color="#F5DA79"/>
</linearGradient>
<linearGradient id="paint1_linear_162_1060" x1="20.0003" y1="10" x2="20.0003" y2="37.5" gradientUnits="userSpaceOnUse">
<stop stop-color="#B2D4F7"/>
<stop offset="1" stop-color="#D9E2F3"/>
</linearGradient>
</defs>
</svg>
