<svg width="32" height="32" viewBox="0 0 32 32" fill="none" xmlns="http://www.w3.org/2000/svg">
<path fill-rule="evenodd" clip-rule="evenodd" d="M27.3147 17.3537C26.7914 16.892 26.1699 16.5347 25.4847 16.3151C26.7926 15.2228 27.6883 13.6846 27.9328 11.9582C27.8584 11.9913 27.7833 12.023 27.7078 12.0533C27.6459 12.0781 27.5836 12.102 27.5209 12.1248C26.7064 12.4222 25.8312 12.5557 24.9482 12.5085L24.9298 12.5074C23.3619 12.4191 21.8825 11.7669 20.7764 10.6761L20.7686 10.6684C19.7665 9.67681 19.1371 8.38845 18.9735 7.01255C18.9557 6.86264 18.9434 6.71169 18.9368 6.55997C18.9006 5.73109 19.0344 4.91114 19.3226 4.1457C16.7757 4.65796 14.7451 6.47226 13.9517 8.81117C13.2997 8.66669 12.6246 8.58146 11.9329 8.56156C13.0201 4.77577 16.5763 2 20.7956 2C21.772 2 22.7129 2.14865 23.5959 2.42407C22.7832 2.75927 22.0971 3.32884 21.6268 4.0458C21.6216 4.04522 21.6163 4.04464 21.611 4.04407C21.1482 4.76749 20.9167 5.61494 20.9543 6.47651C20.9586 6.57401 20.9663 6.67105 20.9773 6.76748C21.0851 7.70983 21.5131 8.59303 22.1969 9.27318L22.2047 9.2809C22.9633 10.0315 23.9803 10.4793 25.0577 10.5369L25.0761 10.5379C25.7251 10.5699 26.3675 10.459 26.9583 10.2194C27.3425 10.0636 27.7048 9.85342 28.0328 9.59276L28.0342 9.5944C28.6401 9.11088 29.1093 8.47078 29.3767 7.73752C29.7793 8.74903 30.0001 9.8493 30.0001 11C30.0001 13.48 28.9742 15.7258 27.3147 17.3537Z" fill="url(#paint0_linear_28_365)"/>
<path fill-rule="evenodd" clip-rule="evenodd" d="M12.5002 28L12.5537 27.9998V28H23.0002L23.0002 27.9999C25.675 27.9999 28.0002 25.7008 28.0002 22.6666C28.0002 19.6324 25.675 17.3333 23.0002 17.3333C22.2698 17.3333 21.5654 17.5047 20.9273 17.8158C20.8418 17.1268 20.6827 16.4624 20.4586 15.8316L20.4609 15.8307C19.2392 12.3871 16.0864 10 12.5002 10C7.89248 10 4.00024 13.9407 4.00024 19C4.00024 24.0593 7.89248 28 12.5002 28ZM23.0002 29.9999C26.8662 29.9999 30.0002 26.7167 30.0002 22.6666C30.0002 18.6165 26.8662 15.3333 23.0002 15.3333C22.8019 15.3333 22.6055 15.3419 22.4113 15.3588C20.9768 11.0731 17.0811 8 12.5002 8C6.70125 8 2.00024 12.9249 2.00024 19C2.00024 25.0751 6.70125 30 12.5002 30C12.5097 30 12.5191 30 12.5285 30V30H23.0002L23.0002 29.9999Z" fill="url(#paint1_linear_28_365)"/>
<defs>
<linearGradient id="paint0_linear_28_365" x1="20.9665" y1="2" x2="20.9665" y2="17.3537" gradientUnits="userSpaceOnUse">
<stop stop-color="#F5BD52"/>
<stop offset="1" stop-color="#F5DA79"/>
</linearGradient>
<linearGradient id="paint1_linear_28_365" x1="16.0002" y1="8" x2="16.0002" y2="30" gradientUnits="userSpaceOnUse">
<stop stop-color="#B2D4F7"/>
<stop offset="1" stop-color="#D9E2F3"/>
</linearGradient>
</defs>
</svg>

