<!--

Coolicons (c) by Kryston Schwarze

"off_close" icon is licensed under a
Creative Commons Attribution 4.0 International License.

You should have received a copy of the license along with this
work. If not, see <http://creativecommons.org/licenses/by/4.0/>.

-->

<svg width="22" height="22" viewBox="0 0 22 22" fill="none" xmlns="http://www.w3.org/2000/svg">
<circle cx="11" cy="11" r="11" fill="#161513"/>
<circle cx="12" cy="10" r="10" fill="#F5F8F2"/>
<path d="M11.9971 20C10.6839 20.0013 9.3833 19.7436 8.1698 19.2415C6.95631 18.7394 5.85372 18.0029 4.92514 17.0741C3.99657 16.1453 3.26024 15.0425 2.75831 13.8287C2.25637 12.6149 1.99869 11.314 2.00001 10.0004V9.80045C2.04 7.83995 2.65511 5.93443 3.76887 4.32071C4.88264 2.707 6.44595 1.45625 8.26452 0.723908C10.0831 -0.008431 12.0767 -0.190067 13.9976 0.201576C15.9186 0.593218 17.6821 1.54087 19.069 2.92675C20.4683 4.32524 21.4214 6.10751 21.8076 8.04801C22.1938 9.98851 21.9958 12 21.2387 13.8279C20.4815 15.6558 19.1993 17.2179 17.5542 18.3166C15.9091 19.4153 13.9752 20.0012 11.9971 20V20ZM11.9971 11.4104L14.5863 14.0003L15.9959 12.5903L13.4067 10.0004L15.9959 7.41055L14.5863 6.00062L11.9971 8.5905L9.40783 6.00062L7.99824 7.41055L10.5875 10.0004L7.99824 12.5903L9.40783 14.0003L11.9971 11.4114V11.4104Z" fill="#8A3333"/>
</svg>
