<!--

CC BY 4.0 License (https://creativecommons.org/licenses/by/4.0/)

The Font Awesome Free download is licensed under a Creative Commons
Attribution 4.0 International License and applies to all icons packaged
as SVG and JS file types.

-->

<svg width="15" height="15" viewBox="0 0 15 15" fill="none" xmlns="http://www.w3.org/2000/svg">
<path d="M14.2726 7.15246C12.9818 4.6338 10.4262 2.92969 7.49999 2.92969C4.5738 2.92969 2.01751 4.63499 0.727355 7.1527C0.672903 7.26041 0.644531 7.37943 0.644531 7.50013C0.644531 7.62081 0.672903 7.73982 0.727355 7.84754C2.01823 10.3662 4.5738 12.0703 7.49999 12.0703C10.4262 12.0703 12.9825 10.365 14.2726 7.8473C14.3271 7.73959 14.3555 7.62057 14.3555 7.49987C14.3555 7.37919 14.3271 7.26018 14.2726 7.15246ZM7.49999 10.9277C6.82205 10.9277 6.15933 10.7267 5.59564 10.3501C5.03195 9.97341 4.59261 9.43807 4.33318 8.81174C4.07374 8.1854 4.00585 7.4962 4.13811 6.83129C4.27037 6.16636 4.59684 5.5556 5.07621 5.07622C5.55559 4.59685 6.16635 4.27039 6.83128 4.13812C7.49619 4.00586 8.18539 4.07375 8.81172 4.33319C9.43806 4.59263 9.9734 5.03196 10.35 5.59565C10.7267 6.15934 10.9277 6.82206 10.9277 7.5C10.9279 7.9502 10.8394 8.39603 10.6673 8.812C10.4951 9.22796 10.2426 9.60593 9.92425 9.92426C9.60591 10.2426 9.22795 10.4951 8.81199 10.6673C8.39601 10.8394 7.95019 10.928 7.49999 10.9277ZM7.49999 5.21485C7.29602 5.2177 7.09338 5.24804 6.89751 5.30506C7.05896 5.52445 7.13642 5.79444 7.11589 6.06605C7.09534 6.33766 6.97813 6.59293 6.78551 6.78554C6.59291 6.97814 6.33765 7.09535 6.06604 7.1159C5.79442 7.13644 5.52444 7.05898 5.30505 6.89753C5.18011 7.35779 5.20267 7.84565 5.36952 8.29243C5.53639 8.7392 5.83915 9.12241 6.2352 9.3881C6.63126 9.65379 7.10066 9.7886 7.57734 9.77354C8.05403 9.75849 8.51397 9.59431 8.89247 9.30416C9.27097 9.014 9.54894 8.61245 9.68728 8.15602C9.8256 7.69961 9.81731 7.2113 9.66358 6.75984C9.50985 6.30837 9.21841 5.91649 8.83029 5.63934C8.44216 5.36219 7.9769 5.21372 7.49999 5.21485Z" fill="#F0EED0"/>
</svg>
