<!--

MIT License

Copyright (c) 2020-2022 Paweł Kuna

Permission is hereby granted, free of charge, to any person obtaining a copy
of this software and associated documentation files (the "Software"), to deal
in the Software without restriction, including without limitation the rights
to use, copy, modify, merge, publish, distribute, sublicense, and/or sell
copies of the Software, and to permit persons to whom the Software is
furnished to do so, subject to the following conditions:

The above copyright notice and this permission notice shall be included in all
copies or substantial portions of the Software.

THE SOFTWARE IS PROVIDED "AS IS", WITHOUT WARRANTY OF ANY KIND, EXPRESS OR
IMPLIED, INCLUDING BUT NOT LIMITED TO THE WARRANTIES OF MERCHANTABILITY,
FITNESS FOR A PARTICULAR PURPOSE AND NONINFRINGEMENT. IN NO EVENT SHALL THE
AUTHORS OR COPYRIGHT HOLDERS BE LIABLE FOR ANY CLAIM, DAMAGES OR OTHER
LIABILITY, WHETHER IN AN ACTION OF CONTRACT, TORT OR OTHERWISE, ARISING FROM,
OUT OF OR IN CONNECTION WITH THE SOFTWARE OR THE USE OR OTHER DEALINGS IN THE
SOFTWARE.

-->

<svg width="15" height="15" viewBox="0 0 15 15" fill="none" xmlns="http://www.w3.org/2000/svg">
<path d="M4.0625 5.00009H9.375C9.66527 5.00564 9.95135 4.93021 10.2012 4.78226C10.4509 4.63431 10.6546 4.41969 10.7892 4.16247C10.9238 3.90526 10.9842 3.61561 10.9634 3.32604C10.9426 3.03646 10.8416 2.7584 10.6716 2.52304C10.5016 2.28767 10.2694 2.10434 10.001 1.99356C9.73269 1.8828 9.43876 1.84899 9.15226 1.89592C8.86576 1.94286 8.598 2.0687 8.37901 2.25931C8.16004 2.44992 7.99849 2.69779 7.9125 2.97509M2.8125 7.50009H12.5C12.7902 7.49452 13.0764 7.56995 13.3261 7.7179C13.576 7.86585 13.7796 8.08047 13.9143 8.33769C14.0489 8.5949 14.1091 8.88455 14.0884 9.17412C14.0676 9.4637 13.9665 9.74176 13.7966 9.97712C13.6266 10.2125 13.3944 10.3958 13.126 10.5066C12.8576 10.6174 12.5637 10.6512 12.2773 10.6042C11.9908 10.5573 11.723 10.4315 11.504 10.2408C11.285 10.0502 11.1235 9.80237 11.0375 9.52509M3.4375 10.0001H6.875C7.16527 9.99452 7.45135 10.0699 7.70115 10.2179C7.95094 10.3658 8.15458 10.5805 8.28921 10.8377C8.42385 11.0949 8.48416 11.3845 8.46339 11.6741C8.44261 11.9637 8.34156 12.2418 8.17158 12.4771C8.0016 12.7124 7.7694 12.8958 7.50104 13.0066C7.23269 13.1173 6.93876 13.1512 6.65226 13.1042C6.36576 13.0573 6.098 12.9314 5.87901 12.7408C5.66004 12.5502 5.49849 12.3024 5.4125 12.0251" stroke="#F0EED0" stroke-width="1.3125" stroke-linecap="round" stroke-linejoin="round"/>
</svg>
