<svg width="32" height="32" viewBox="0 0 32 32" fill="none" xmlns="http://www.w3.org/2000/svg">
<path fill-rule="evenodd" clip-rule="evenodd" d="M28.0002 17.1081C28.0002 19.381 26.5219 21.2879 24.5002 21.9304V23.9999C27.6454 23.3079 30.0002 20.4852 30.0002 17.1081C30.0002 13.2122 26.8662 10.054 23.0002 10.054C22.8019 10.054 22.6055 10.0623 22.4113 10.0786C20.9768 5.95612 17.0811 3 12.5002 3C6.70125 3 2.00024 7.73737 2.00024 13.5812C2.00024 17.9978 4.68536 21.7823 8.50024 23.3676V21.1542C5.82638 19.712 4.00024 16.868 4.00024 13.5812C4.00024 8.82738 7.82032 5 12.5002 5C16.1237 5 19.2316 7.29436 20.4502 10.5367L20.4585 10.5334C20.6897 11.1592 20.8517 11.8194 20.9351 12.5044C21.5657 12.2149 22.2653 12.054 23.0002 12.054C25.7471 12.054 28.0002 14.3023 28.0002 17.1081ZM23.0002 18H13.0002V20H23.0002V18ZM21.0002 22H11.0002V24H21.0002V22ZM13.0002 26H23.0002V28H13.0002V26Z" fill="url(#paint0_linear_28_414)"/>
<defs>
<linearGradient id="paint0_linear_28_414" x1="16.0002" y1="3" x2="16.0002" y2="28" gradientUnits="userSpaceOnUse">
<stop stop-color="#CED3EA"/>
<stop offset="1" stop-color="#7E83A9"/>
</linearGradient>
</defs>
</svg>

