<svg width="32" height="32" viewBox="0 0 32 32" fill="none" xmlns="http://www.w3.org/2000/svg">
<path fill-rule="evenodd" clip-rule="evenodd" d="M24.0002 23.9572C27.3753 23.57 30.0002 20.6028 30.0002 17C30.0002 13.134 26.9779 10 23.2495 10C23.1057 10 22.9629 10.0047 22.8213 10.0139C21.5663 5.38976 17.4692 2 12.6085 2C6.74974 2 2.00024 6.92487 2.00024 13C2.00024 18.1419 5.40262 22.4598 10.0002 23.665V21.5772C6.55285 20.4291 4.00024 17.0657 4.00024 13C4.00024 7.96046 7.92204 4 12.6085 4C16.5841 4 20.0094 6.85004 20.9571 10.7911L20.9601 10.7899C21.094 11.3367 21.1793 11.9037 21.2111 12.4855C21.8342 12.1732 22.5274 12 23.2495 12C25.8055 12 28.0002 14.1696 28.0002 17C28.0002 19.5486 26.2207 21.5615 24.0002 21.937V23.9572ZM13.5023 28.0021C13.7445 28.0021 14.0025 27.7921 14.0024 27.456C14.0023 27.272 13.9391 26.9263 13.7438 26.4168C13.6659 26.2136 13.5749 26.0045 13.4746 25.7938C13.1755 26.4437 13.0018 27.0277 13.0019 27.456C13.002 27.7921 13.2602 28.0021 13.5023 28.0021ZM12.2926 23.7572C12.9031 22.7302 13.5005 22 13.5005 22C13.5005 22 14.0701 22.7554 14.6657 23.7778C15.3183 24.8977 16.002 26.3379 16.0024 27.456C16.0028 28.8622 14.8838 30.0021 13.5029 30.0021C12.1221 30.0021 11.0023 28.8622 11.0019 27.456C11.0015 26.229 11.6543 24.8309 12.2926 23.7572ZM20.0024 24.456C20.0025 24.7921 19.7445 25.0021 19.5023 25.0021C19.2602 25.0021 19.002 24.7921 19.0019 24.456C19.0018 24.0277 19.1755 23.4437 19.4746 22.7938C19.5749 23.0045 19.6659 23.2136 19.7438 23.4168C19.9391 23.9263 20.0023 24.272 20.0024 24.456ZM19.5005 19C19.5005 19 18.9031 19.7302 18.2926 20.7572C17.6543 21.8309 17.0015 23.229 17.0019 24.456C17.0023 25.8622 18.1221 27.0021 19.5029 27.0021C20.8838 27.0021 22.0028 25.8622 22.0024 24.456C22.002 23.3379 21.3183 21.8977 20.6657 20.7778C20.0701 19.7554 19.5005 19 19.5005 19Z" fill="url(#paint0_linear_28_644)"/>
<defs>
<linearGradient id="paint0_linear_28_644" x1="16.0002" y1="2" x2="16.0002" y2="30.0021" gradientUnits="userSpaceOnUse">
<stop stop-color="#95B6F6"/>
<stop offset="1" stop-color="#5193DE"/>
</linearGradient>
</defs>
</svg>

