<svg width="40" height="40" viewBox="0 0 40 40" fill="none" xmlns="http://www.w3.org/2000/svg">
<path fill-rule="evenodd" clip-rule="evenodd" d="M17.4934 20.0015L11.1015 23.74L6.03487 21.4142L4.99481 23.7022L8.45247 25.2894L6.55057 26.4018L7.78844 28.5737L9.69001 27.4616L9.31806 31.2881L11.794 31.5195L12.339 25.9122L18.7339 22.172V29.691L14.209 32.9751L15.6774 34.9985L18.7339 32.7801V35H21.2339V32.78L24.2905 34.9985L25.7589 32.9751L21.2339 29.6909V22.1892L27.643 25.9379L28.1881 31.5459L30.664 31.3144L30.292 27.4872L32.194 28.5998L33.4319 26.4278L31.5301 25.3154L34.9872 23.7285L33.9473 21.4406L28.8811 23.766L22.4447 20.0015L28.8613 16.2485L33.9609 18.5894L35.0009 16.3015L31.5103 14.6991L33.4344 13.5738L32.1965 11.4018L30.3093 12.5056L30.6776 8.7156L28.2017 8.48411L27.6603 14.055L21.2339 17.8138V10.3344L25.788 7.02909L24.3195 5.00583L21.2339 7.24536V5H18.7339V7.20308L15.7065 5.00583L14.238 7.02909L18.7339 10.2921V17.831L12.3587 14.1023L11.81 8.45812L9.33414 8.6896L9.70966 12.5529L7.78592 11.4277L6.54806 13.5997L8.43529 14.7035L5.01087 16.2755L6.05094 18.5634L11.0843 16.2529L17.4934 20.0015Z" fill="url(#paint0_linear_162_1008)"/>
<defs>
<linearGradient id="paint0_linear_162_1008" x1="19.9979" y1="5" x2="19.9979" y2="35" gradientUnits="userSpaceOnUse">
<stop stop-color="#B2D4F7"/>
<stop offset="1" stop-color="#D9E2F3"/>
</linearGradient>
</defs>
</svg>
