<svg width="32" height="32" viewBox="0 0 32 32" fill="none" xmlns="http://www.w3.org/2000/svg">
<path fill-rule="evenodd" clip-rule="evenodd" d="M13.9947 16.0012L8.88119 18.992L4.8279 17.1314L3.99585 18.9618L6.76198 20.2315L5.24046 21.1214L6.23075 22.859L7.75201 21.9693L7.45445 25.0305L9.43517 25.2156L9.87122 20.7298L14.9871 17.7376V23.7528L11.3672 26.3801L12.5419 27.9988L14.9871 26.2241V28H16.9871V26.224L19.4324 27.9988L20.6071 26.3801L16.9871 23.7527V17.7514L22.1144 20.7503L22.5505 25.2367L24.5312 25.0515L24.2336 21.9898L25.7552 22.8798L26.7455 21.1422L25.2241 20.2523L27.9898 18.9828L27.1578 17.1525L23.1049 19.0128L17.9558 16.0012L23.089 12.9988L27.1687 14.8715L28.0007 13.0412L25.2082 11.7593L26.7475 10.859L25.7572 9.12142L24.2474 10.0045L24.5421 6.97248L22.5614 6.78729L22.1282 11.244L16.9871 14.251V8.26755L20.6304 5.62327L19.4556 4.00466L16.9871 5.79629V4H14.9871V5.76246L12.5652 4.00466L11.3904 5.62327L14.9871 8.23371V14.2648L9.88693 11.2818L9.44802 6.7665L7.46731 6.95168L7.76773 10.0423L6.22874 9.14217L5.23845 10.8798L6.74823 11.7628L4.0087 13.0204L4.84075 14.8507L8.86743 13.0023L13.9947 16.0012Z" fill="url(#paint0_linear_28_1284)"/>
<defs>
<linearGradient id="paint0_linear_28_1284" x1="15.9983" y1="4" x2="15.9983" y2="28" gradientUnits="userSpaceOnUse">
<stop stop-color="#B2D4F7"/>
<stop offset="1" stop-color="#D9E2F3"/>
</linearGradient>
</defs>
</svg>
