<svg width="40" height="40" viewBox="0 0 40 40" fill="none" xmlns="http://www.w3.org/2000/svg">
<rect x="1.25024" y="30" width="37.5" height="2.5" rx="1" fill="#BDD8F7"/>
<mask id="mask0_31_1069" style="mask-type:alpha" maskUnits="userSpaceOnUse" x="1" y="8" width="38" height="21">
<rect x="1.25024" y="8.125" width="37.5" height="20" fill="#FFFFFF"/>
</mask>
<g mask="url(#mask0_31_1069)">
<path fill-rule="evenodd" clip-rule="evenodd" d="M18.7502 11.875V8.125H21.2502V11.875H18.7502ZM25.7928 13.0923L27.6678 9.84467L29.8329 11.0947L27.9579 14.3423L25.7928 13.0923ZM20.0002 34.375C24.8327 34.375 28.7502 30.4575 28.7502 25.625C28.7502 20.7925 24.8327 16.875 20.0002 16.875C15.1678 16.875 11.2502 20.7925 11.2502 25.625C11.2502 30.4575 15.1678 34.375 20.0002 34.375ZM20.0002 36.875C26.2134 36.875 31.2502 31.8382 31.2502 25.625C31.2502 19.4118 26.2134 14.375 20.0002 14.375C13.787 14.375 8.75024 19.4118 8.75024 25.625C8.75024 31.8382 13.787 36.875 20.0002 36.875ZM33.7502 24.375H37.5002V26.875H33.7502V24.375ZM34.5307 15.7925L31.2831 17.6675L32.5331 19.8325L35.7807 17.9575L34.5307 15.7925ZM10.1677 11.0947L12.0427 14.3423L14.2078 13.0923L12.3328 9.84467L10.1677 11.0947ZM7.46743 19.8325L4.21983 17.9575L5.46983 15.7925L8.71743 17.6675L7.46743 19.8325ZM18.7502 39.375V43.125H21.2502V39.375H18.7502ZM6.25024 24.375H2.50024V26.875H6.25024V24.375ZM4.21977 33.2925L7.46736 31.4175L8.71736 33.5825L5.46977 35.4575L4.21977 33.2925ZM12.0428 36.908L10.1678 40.1556L12.3329 41.4056L14.2079 38.158L12.0428 36.908ZM27.6677 41.4056L25.7927 38.158L27.9578 36.908L29.8328 40.1556L27.6677 41.4056ZM31.2831 33.5825L34.5307 35.4575L35.7807 33.2925L32.5331 31.4175L31.2831 33.5825Z" fill="url(#paint0_linear_31_1069)"/>
</g>
<defs>
<linearGradient id="paint0_linear_31_1069" x1="20.0002" y1="8.125" x2="20.0002" y2="43.125" gradientUnits="userSpaceOnUse">
<stop stop-color="#EFC977"/>
<stop offset="1" stop-color="#E07256"/>
</linearGradient>
</defs>
</svg>
