<svg width="40" height="40" viewBox="0 0 40 40" fill="none" xmlns="http://www.w3.org/2000/svg">
<path fill-rule="evenodd" clip-rule="evenodd" d="M35.0003 21.3851C35.0003 24.2263 33.1524 26.6099 30.6253 27.413V29.9999C34.5568 29.1349 37.5003 25.6065 37.5003 21.3851C37.5003 16.5153 33.5828 12.5675 28.7503 12.5675C28.5024 12.5675 28.2569 12.5779 28.0141 12.5982C26.221 7.44515 21.3514 3.75 15.6253 3.75C8.37657 3.75 2.50031 9.67171 2.50031 16.9765C2.50031 22.4972 5.85671 27.2279 10.6253 29.2095V26.4427C7.28298 24.64 5.0003 21.085 5.0003 16.9765C5.0003 11.0342 9.7754 6.25 15.6253 6.25C20.1546 6.25 24.0395 9.11795 25.5628 13.1709L25.5731 13.1667C25.8621 13.949 26.0646 14.7743 26.1689 15.6305C26.9571 15.2686 27.8316 15.0675 28.7503 15.0675C32.1839 15.0675 35.0003 17.8779 35.0003 21.3851ZM28.7503 22.5H16.2503V25H28.7503V22.5ZM26.2503 27.5H13.7503V30H26.2503V27.5ZM16.2503 32.5H28.7503V35H16.2503V32.5Z" fill="url(#paint0_linear_162_1004)"/>
<defs>
<linearGradient id="paint0_linear_162_1004" x1="20.0003" y1="3.75" x2="20.0003" y2="35" gradientUnits="userSpaceOnUse">
<stop stop-color="#CED3EA"/>
<stop offset="1" stop-color="#7E83A9"/>
</linearGradient>
</defs>
</svg>
