<svg width="50" height="50" viewBox="0 0 50 50" fill="none" xmlns="http://www.w3.org/2000/svg">
<path d="M47.1878 37.5H2.81281C2.12245 37.5 1.56281 38.0596 1.56281 38.75V39.375C1.56281 40.0654 2.12245 40.625 2.81281 40.625H47.1878C47.8782 40.625 48.4378 40.0654 48.4378 39.375V38.75C48.4378 38.0596 47.8782 37.5 47.1878 37.5Z" fill="#BDD8F7"/>
<mask id="mask0_162_1013" style="mask-type:alpha" maskUnits="userSpaceOnUse" x="1" y="10" width="48" height="26">
<path d="M48.4378 10.1562H1.56281V35.1562H48.4378V10.1562Z" fill="white"/>
</mask>
<g mask="url(#mask0_162_1013)">
<path fill-rule="evenodd" clip-rule="evenodd" d="M23.4378 14.8438V10.1562H26.5628V14.8438H23.4378ZM32.241 16.3654L34.5848 12.3058L37.2911 13.8684L34.9474 17.9279L32.241 16.3654ZM25.0003 42.9688C31.0409 42.9688 35.9378 38.0719 35.9378 32.0312C35.9378 25.9906 31.0409 21.0938 25.0003 21.0938C18.9598 21.0938 14.0628 25.9906 14.0628 32.0312C14.0628 38.0719 18.9598 42.9688 25.0003 42.9688ZM25.0003 46.0938C32.7668 46.0938 39.0628 39.7978 39.0628 32.0312C39.0628 24.2647 32.7668 17.9688 25.0003 17.9688C17.2338 17.9688 10.9378 24.2647 10.9378 32.0312C10.9378 39.7978 17.2338 46.0938 25.0003 46.0938ZM42.1878 30.4688H46.8753V33.5938H42.1878V30.4688ZM43.1634 19.7406L39.1039 22.0844L40.6664 24.7906L44.7259 22.4469L43.1634 19.7406ZM12.7096 13.8684L15.0534 17.9279L17.7598 16.3654L15.416 12.3058L12.7096 13.8684ZM9.33429 24.7906L5.27479 22.4469L6.83729 19.7406L10.8968 22.0844L9.33429 24.7906ZM23.4378 49.2188V53.9062H26.5628V49.2188H23.4378ZM7.8128 30.4688H3.12531V33.5938H7.8128V30.4688ZM5.27472 41.6156L9.33421 39.2719L10.8967 41.9781L6.83722 44.3219L5.27472 41.6156ZM15.0535 46.135L12.7098 50.1945L15.4161 51.757L17.7599 47.6975L15.0535 46.135ZM34.5846 51.757L32.2409 47.6975L34.9473 46.135L37.291 50.1945L34.5846 51.757ZM39.1039 41.9781L43.1634 44.3219L44.7259 41.6156L40.6664 39.2719L39.1039 41.9781Z" fill="url(#paint0_linear_162_1013)"/>
</g>
<defs>
<linearGradient id="paint0_linear_162_1013" x1="25.0003" y1="10.1562" x2="25.0003" y2="53.9062" gradientUnits="userSpaceOnUse">
<stop stop-color="#EFC977"/>
<stop offset="1" stop-color="#E07256"/>
</linearGradient>
</defs>
</svg>
