<!--

Coolicons (c) by Kryston Schwarze

"off_close" icon is licensed under a
Creative Commons Attribution 4.0 International License.

You should have received a copy of the license along with this
work. If not, see <http://creativecommons.org/licenses/by/4.0/>.

-->

<svg width="28" height="28" viewBox="0 0 28 28" fill="none" xmlns="http://www.w3.org/2000/svg">
<path d="M13.75 27.5C21.3439 27.5 27.5 21.3439 27.5 13.75C27.5 6.15608 21.3439 0 13.75 0C6.15608 0 0 6.15608 0 13.75C0 21.3439 6.15608 27.5 13.75 27.5Z" fill="#161513"/>
<path d="M15 22.5C20.5228 22.5 25 18.0228 25 12.5C25 6.97715 20.5228 2.5 15 2.5C9.47715 2.5 5 6.97715 5 12.5C5 18.0228 9.47715 22.5 15 22.5Z" fill="#F5F8F2"/>
<path d="M14.9964 25C13.3549 25.0016 11.7291 24.6795 10.2122 24.0519C8.69538 23.4243 7.31714 22.5036 6.15642 21.3426C4.99571 20.1816 4.07529 18.8031 3.44788 17.2859C2.82046 15.7686 2.49836 14.1425 2.50001 12.5005V12.2506C2.54999 9.79994 3.31888 7.41804 4.71108 5.40089C6.10329 3.38375 8.05743 1.82031 10.3306 0.904885C12.6039 -0.0105388 15.0959 -0.237584 17.497 0.25197C19.8982 0.741522 22.1026 1.92609 23.8362 3.65844C25.5854 5.40655 26.7767 7.63439 27.2595 10.06C27.7422 12.4856 27.4947 15 26.5484 17.2849C25.6019 19.5697 23.9991 21.5224 21.9427 22.8958C19.8864 24.2691 17.469 25.0015 14.9964 25ZM14.9964 14.263L18.2329 17.5004L19.9949 15.7379L16.7584 12.5005L19.9949 9.26319L18.2329 7.50077L14.9964 10.7381L11.7598 7.50077L9.99779 9.26319L13.2344 12.5005L9.99779 15.7379L11.7598 17.5004L14.9964 14.2642V14.263Z" fill="#8A3333"/>
</svg>
