<svg width="434" height="140" viewBox="0 0 434 140" fill="none" xmlns="http://www.w3.org/2000/svg">
<rect width="434" height="140" fill="#161513"/>
<path fill-rule="evenodd" clip-rule="evenodd" d="M153.123 79.0829V82.8936H141.026V91.2936H150.458V95.1044H141.026V107.561H136.351V79.0829H153.123ZM162.131 84.9834V107.561H157.456V84.9834H162.131ZM177.373 84.6146C179.122 84.6146 180.667 84.9697 182.007 85.68C183.374 86.3629 184.44 87.2234 185.205 88.2615V84.9834H189.921V107.93C189.921 110.006 189.484 111.85 188.609 113.461C187.734 115.1 186.463 116.384 184.795 117.313C183.155 118.242 181.186 118.706 178.89 118.706C175.828 118.706 173.286 117.982 171.263 116.535C169.239 115.114 168.091 113.175 167.817 110.716H172.452C172.807 111.891 173.559 112.833 174.707 113.543C175.883 114.281 177.277 114.65 178.89 114.65C180.776 114.65 182.294 114.076 183.442 112.929C184.617 111.781 185.205 110.115 185.205 107.93V104.16C184.412 105.225 183.333 106.127 181.966 106.864C180.626 107.575 179.095 107.93 177.373 107.93C175.404 107.93 173.6 107.438 171.96 106.455C170.346 105.444 169.061 104.051 168.104 102.275C167.175 100.472 166.71 98.4371 166.71 96.1697C166.71 93.9024 167.175 91.8946 168.104 90.1463C169.061 88.398 170.346 87.0458 171.96 86.0897C173.6 85.1063 175.404 84.6146 177.373 84.6146ZM185.205 96.2517C185.205 94.6946 184.877 93.3424 184.221 92.1951C183.592 91.0478 182.758 90.1736 181.72 89.5727C180.681 88.9717 179.56 88.6712 178.357 88.6712C177.154 88.6712 176.033 88.9717 174.994 89.5727C173.955 90.1463 173.108 91.0068 172.452 92.1541C171.823 93.2741 171.509 94.6127 171.509 96.1697C171.509 97.7268 171.823 99.0927 172.452 100.267C173.108 101.442 173.955 102.343 174.994 102.972C176.06 103.573 177.181 103.873 178.357 103.873C179.56 103.873 180.681 103.573 181.72 102.972C182.758 102.371 183.592 101.497 184.221 100.349C184.877 99.1746 185.205 97.8088 185.205 96.2517ZM223.413 84.6146C225.19 84.6146 226.775 84.9834 228.17 85.721C229.591 86.4585 230.698 87.5512 231.491 88.999C232.311 90.4468 232.721 92.1951 232.721 94.2439V107.561H228.088V94.9405C228.088 92.919 227.582 91.3756 226.57 90.3102C225.559 89.2176 224.178 88.6712 222.428 88.6712C220.679 88.6712 219.284 89.2176 218.246 90.3102C217.234 91.3756 216.728 92.919 216.728 94.9405V107.561H212.094V94.9405C212.094 92.919 211.589 91.3756 210.577 90.3102C209.566 89.2176 208.185 88.6712 206.435 88.6712C204.686 88.6712 203.291 89.2176 202.253 90.3102C201.241 91.3756 200.735 92.919 200.735 94.9405V107.561H196.06V84.9834H200.735V87.5649C201.501 86.6361 202.471 85.9122 203.647 85.3932C204.822 84.8741 206.08 84.6146 207.42 84.6146C209.224 84.6146 210.837 84.9971 212.258 85.7619C213.68 86.5268 214.774 87.6332 215.539 89.081C216.223 87.7151 217.289 86.6361 218.738 85.8439C220.187 85.0244 221.745 84.6146 223.413 84.6146ZM237.113 96.1697C237.113 93.9024 237.577 91.8946 238.507 90.1463C239.464 88.398 240.749 87.0458 242.362 86.0897C244.002 85.1063 245.806 84.6146 247.775 84.6146C249.552 84.6146 251.096 84.9697 252.409 85.68C253.748 86.3629 254.814 87.2234 255.607 88.2615V84.9834H260.323V107.561H255.607V104.201C254.814 105.266 253.735 106.154 252.368 106.864C251.001 107.575 249.442 107.93 247.693 107.93C245.752 107.93 243.975 107.438 242.362 106.455C240.749 105.444 239.464 104.051 238.507 102.275C237.577 100.472 237.113 98.4371 237.113 96.1697ZM255.607 96.2517C255.607 94.6946 255.279 93.3424 254.623 92.1951C253.994 91.0478 253.16 90.1736 252.122 89.5727C251.083 88.9717 249.962 88.6712 248.759 88.6712C247.556 88.6712 246.435 88.9717 245.396 89.5727C244.357 90.1463 243.51 91.0068 242.854 92.1541C242.225 93.2741 241.911 94.6127 241.911 96.1697C241.911 97.7268 242.225 99.0927 242.854 100.267C243.51 101.442 244.357 102.343 245.396 102.972C246.462 103.573 247.583 103.873 248.759 103.873C249.962 103.873 251.083 103.573 252.122 102.972C253.16 102.371 253.994 101.497 254.623 100.349C255.279 99.1746 255.607 97.8088 255.607 96.2517ZM286.425 79.0829C289.459 79.0829 292.111 79.6702 294.38 80.8449C296.677 81.9922 298.44 83.6585 299.67 85.8439C300.928 88.0019 301.557 90.5288 301.557 93.4244C301.557 96.32 300.928 98.8332 299.67 100.964C298.44 103.095 296.677 104.734 294.38 105.881C292.111 107.001 289.459 107.561 286.425 107.561H277.116V79.0829H286.425ZM286.425 103.75C289.76 103.75 292.316 102.849 294.093 101.046C295.87 99.2429 296.759 96.7024 296.759 93.4244C296.759 90.119 295.87 87.5375 294.093 85.68C292.316 83.8224 289.76 82.8936 286.425 82.8936H281.791V103.75H286.425ZM326.898 95.719C326.898 96.5658 326.843 97.3307 326.734 98.0136H309.469C309.606 99.8166 310.276 101.264 311.479 102.357C312.682 103.45 314.158 103.996 315.908 103.996C318.423 103.996 320.2 102.944 321.239 100.841H326.283C325.599 102.917 324.355 104.624 322.551 105.963C320.774 107.274 318.559 107.93 315.908 107.93C313.748 107.93 311.807 107.452 310.084 106.496C308.389 105.512 307.05 104.146 306.066 102.398C305.109 100.622 304.63 98.5736 304.63 96.2517C304.63 93.9297 305.095 91.8946 306.025 90.1463C306.982 88.3707 308.307 87.0049 310.002 86.0488C311.725 85.0927 313.693 84.6146 315.908 84.6146C318.04 84.6146 319.94 85.079 321.608 86.0078C323.275 86.9366 324.574 88.2478 325.503 89.9415C326.433 91.6078 326.898 93.5336 326.898 95.719ZM322.018 94.2439C321.99 92.5229 321.375 91.1434 320.172 90.1054C318.97 89.0673 317.48 88.5483 315.703 88.5483C314.09 88.5483 312.709 89.0673 311.561 90.1054C310.413 91.1161 309.729 92.4956 309.51 94.2439H322.018ZM339.701 107.93C337.924 107.93 336.324 107.616 334.903 106.987C333.509 106.332 332.401 105.458 331.581 104.365C330.761 103.245 330.324 102.002 330.269 100.636H335.108C335.19 101.592 335.641 102.398 336.461 103.054C337.309 103.682 338.361 103.996 339.619 103.996C340.931 103.996 341.942 103.75 342.653 103.259C343.391 102.74 343.76 102.084 343.76 101.292C343.76 100.445 343.35 99.8166 342.53 99.4068C341.737 98.9971 340.466 98.5463 338.717 98.0546C337.022 97.5902 335.641 97.1395 334.575 96.7024C333.509 96.2654 332.579 95.5961 331.786 94.6946C331.021 93.7932 330.638 92.6049 330.638 91.1297C330.638 89.9278 330.993 88.8351 331.704 87.8517C332.415 86.841 333.426 86.0488 334.739 85.4751C336.078 84.9015 337.609 84.6146 339.332 84.6146C341.901 84.6146 343.966 85.2702 345.524 86.5815C347.109 87.8654 347.957 89.6273 348.066 91.8673H343.391C343.309 90.8566 342.899 90.0507 342.161 89.4497C341.423 88.8488 340.425 88.5483 339.168 88.5483C337.937 88.5483 336.994 88.7805 336.338 89.2449C335.682 89.7093 335.354 90.3239 335.354 91.0888C335.354 91.6897 335.573 92.1951 336.01 92.6049C336.447 93.0146 336.981 93.3424 337.609 93.5883C338.238 93.8068 339.168 94.0936 340.398 94.4488C342.038 94.8858 343.378 95.3366 344.417 95.801C345.483 96.238 346.399 96.8936 347.164 97.7678C347.93 98.6419 348.326 99.8029 348.353 101.251C348.353 102.535 347.998 103.682 347.287 104.693C346.576 105.703 345.565 106.496 344.253 107.069C342.968 107.643 341.45 107.93 339.701 107.93ZM358.079 84.9834V107.561H353.404V84.9834H358.079ZM373.32 84.6146C375.07 84.6146 376.615 84.9697 377.954 85.68C379.321 86.3629 380.387 87.2234 381.153 88.2615V84.9834H385.869V107.93C385.869 110.006 385.431 111.85 384.556 113.461C383.682 115.1 382.41 116.384 380.743 117.313C379.102 118.242 377.134 118.706 374.838 118.706C371.776 118.706 369.233 117.982 367.21 116.535C365.187 115.114 364.039 113.175 363.765 110.716H368.399C368.755 111.891 369.507 112.833 370.655 113.543C371.83 114.281 373.225 114.65 374.838 114.65C376.724 114.65 378.241 114.076 379.389 112.929C380.565 111.781 381.153 110.115 381.153 107.93V104.16C380.36 105.225 379.28 106.127 377.913 106.864C376.574 107.575 375.043 107.93 373.32 107.93C371.352 107.93 369.548 107.438 367.907 106.455C366.294 105.444 365.009 104.051 364.053 102.275C363.123 100.472 362.658 98.4371 362.658 96.1697C362.658 93.9024 363.123 91.8946 364.053 90.1463C365.009 88.398 366.294 87.0458 367.907 86.0897C369.548 85.1063 371.352 84.6146 373.32 84.6146ZM381.153 96.2517C381.153 94.6946 380.825 93.3424 380.169 92.1951C379.54 91.0478 378.706 90.1736 377.667 89.5727C376.628 88.9717 375.507 88.6712 374.305 88.6712C373.102 88.6712 371.981 88.9717 370.942 89.5727C369.903 90.1463 369.055 91.0068 368.399 92.1541C367.771 93.2741 367.456 94.6127 367.456 96.1697C367.456 97.7268 367.771 99.0927 368.399 100.267C369.055 101.442 369.903 102.343 370.942 102.972C372.008 103.573 373.129 103.873 374.305 103.873C375.507 103.873 376.628 103.573 377.667 102.972C378.706 102.371 379.54 101.497 380.169 100.349C380.825 99.1746 381.153 97.8088 381.153 96.2517ZM403.41 84.6146C405.187 84.6146 406.772 84.9834 408.167 85.721C409.588 86.4585 410.696 87.5512 411.488 88.999C412.281 90.4468 412.678 92.1951 412.678 94.2439V107.561H408.044V94.9405C408.044 92.919 407.538 91.3756 406.526 90.3102C405.515 89.2176 404.134 88.6712 402.385 88.6712C400.635 88.6712 399.241 89.2176 398.202 90.3102C397.19 91.3756 396.685 92.919 396.685 94.9405V107.561H392.01V84.9834H396.685V87.5649C397.45 86.6361 398.421 85.9122 399.596 85.3932C400.799 84.8741 402.07 84.6146 403.41 84.6146Z" fill="#D7E1F4"/>
<path d="M295.139 59.0596H283.205L281.155 64.8781H276.275L286.486 36.3591H291.899L302.11 64.8781H297.189L295.139 59.0596ZM293.827 55.2488L289.193 42.0137L284.518 55.2488H293.827ZM311.224 45.6196C312.017 44.5815 313.097 43.7074 314.464 42.9971C315.831 42.2869 317.375 41.9318 319.098 41.9318C321.066 41.9318 322.857 42.4235 324.47 43.4069C326.11 44.363 327.395 45.7152 328.324 47.4635C329.254 49.2118 329.719 51.2196 329.719 53.4869C329.719 55.7542 329.254 57.7893 328.324 59.5922C327.395 61.3678 326.11 62.761 324.47 63.7718C322.857 64.7552 321.066 65.2469 319.098 65.2469C317.375 65.2469 315.844 64.9054 314.505 64.2225C313.165 63.5122 312.072 62.6381 311.224 61.6V75.6137H306.549V42.3005H311.224V45.6196ZM324.962 53.4869C324.962 51.9298 324.634 50.5913 323.978 49.4713C323.349 48.3239 322.501 47.4635 321.435 46.8898C320.396 46.2888 319.275 45.9883 318.072 45.9883C316.897 45.9883 315.776 46.2888 314.71 46.8898C313.671 47.4908 312.823 48.3649 312.167 49.5122C311.539 50.6596 311.224 52.0118 311.224 53.5688C311.224 55.1259 311.539 56.4918 312.167 57.6664C312.823 58.8137 313.671 59.6879 314.71 60.2888C315.776 60.8898 316.897 61.1903 318.072 61.1903C319.275 61.1903 320.396 60.8898 321.435 60.2888C322.501 59.6605 323.349 58.7591 323.978 57.5844C324.634 56.4098 324.962 55.0439 324.962 53.4869ZM339.017 45.6196C339.81 44.5815 340.89 43.7074 342.257 42.9971C343.624 42.2869 345.168 41.9318 346.891 41.9318C348.859 41.9318 350.65 42.4235 352.263 43.4069C353.903 44.363 355.188 45.7152 356.117 47.4635C357.047 49.2118 357.512 51.2196 357.512 53.4869C357.512 55.7542 357.047 57.7893 356.117 59.5922C355.188 61.3678 353.903 62.761 352.263 63.7718C350.65 64.7552 348.859 65.2469 346.891 65.2469C345.168 65.2469 343.637 64.9054 342.298 64.2225C340.958 63.5122 339.865 62.6381 339.017 61.6V75.6137H334.342V42.3005H339.017V45.6196ZM352.755 53.4869C352.755 51.9298 352.427 50.5913 351.771 49.4713C351.142 48.3239 350.294 47.4635 349.228 46.8898C348.189 46.2888 347.068 45.9883 345.866 45.9883C344.69 45.9883 343.569 46.2888 342.503 46.8898C341.464 47.4908 340.617 48.3649 339.96 49.5122C339.332 50.6596 339.017 52.0118 339.017 53.5688C339.017 55.1259 339.332 56.4918 339.96 57.6664C340.617 58.8137 341.464 59.6879 342.503 60.2888C343.569 60.8898 344.69 61.1903 345.866 61.1903C347.068 61.1903 348.189 60.8898 349.228 60.2888C350.294 59.6605 351.142 58.7591 351.771 57.5844C352.427 56.4098 352.755 55.0439 352.755 53.4869Z" fill="#EDE9BF"/>
<path d="M134.793 50.5776C134.793 47.7912 135.435 45.2917 136.72 43.079C138.032 40.8663 139.796 39.1454 142.01 37.9161C144.252 36.6595 146.699 36.0312 149.351 36.0312C152.385 36.0312 155.078 36.7824 157.429 38.2849C159.808 39.76 161.53 41.8634 162.596 44.5951H156.978C156.24 43.0927 155.215 41.9727 153.903 41.2351C152.59 40.4976 151.073 40.1288 149.351 40.1288C147.464 40.1288 145.783 40.5522 144.307 41.399C142.83 42.2458 141.669 43.4615 140.821 45.0458C140.001 46.6302 139.591 48.4741 139.591 50.5776C139.591 52.681 140.001 54.5249 140.821 56.1093C141.669 57.6936 142.83 58.9229 144.307 59.7971C145.783 60.6439 147.464 61.0673 149.351 61.0673C151.073 61.0673 152.59 60.6985 153.903 59.961C155.215 59.2234 156.24 58.1034 156.978 56.601H162.596C161.53 59.3327 159.808 61.4361 157.429 62.9112C155.078 64.3863 152.385 65.1239 149.351 65.1239C146.671 65.1239 144.225 64.5093 142.01 63.28C139.796 62.0234 138.032 60.2888 136.72 58.0761C135.435 55.8634 134.793 53.3639 134.793 50.5776ZM179.756 41.9317C181.479 41.9317 183.01 42.3005 184.349 43.038C185.716 43.7756 186.782 44.8683 187.548 46.3161C188.341 47.7639 188.737 49.5122 188.737 51.561V64.878H184.103V52.2576C184.103 50.2361 183.597 48.6927 182.586 47.6273C181.574 46.5346 180.194 45.9883 178.444 45.9883C176.694 45.9883 175.3 46.5346 174.261 47.6273C173.25 48.6927 172.744 50.2361 172.744 52.2576V64.878H168.068V34.5561H172.744V44.9229C173.537 43.9668 174.535 43.2293 175.738 42.7102C176.968 42.1912 178.307 41.9317 179.756 41.9317ZM215.408 53.0361C215.408 53.8829 215.353 54.6478 215.243 55.3307H197.979C198.116 57.1337 198.786 58.5815 199.989 59.6741C201.191 60.7668 202.668 61.3132 204.417 61.3132C206.933 61.3132 208.71 60.2615 209.748 58.158H214.792C214.109 60.2341 212.865 61.9415 211.061 63.28C209.284 64.5912 207.069 65.2468 204.417 65.2468C202.258 65.2468 200.317 64.7688 198.594 63.8127C196.899 62.8293 195.56 61.4634 194.576 59.7151C193.619 57.9395 193.14 55.8907 193.14 53.5688C193.14 51.2468 193.605 49.2117 194.535 47.4634C195.491 45.6878 196.817 44.3219 198.512 43.3658C200.235 42.4097 202.203 41.9317 204.417 41.9317C206.55 41.9317 208.45 42.3961 210.118 43.3249C211.785 44.2537 213.084 45.5649 214.013 47.2585C214.943 48.9249 215.408 50.8507 215.408 53.0361ZM210.528 51.561C210.5 49.84 209.885 48.4605 208.682 47.4224C207.479 46.3844 205.989 45.8654 204.212 45.8654C202.599 45.8654 201.219 46.3844 200.071 47.4224C198.922 48.4332 198.239 49.8127 198.02 51.561H210.528ZM218.451 53.5688C218.451 51.2468 218.915 49.2117 219.845 47.4634C220.802 45.6878 222.114 44.3219 223.782 43.3658C225.449 42.4097 227.363 41.9317 229.523 41.9317C232.257 41.9317 234.512 42.5873 236.289 43.8985C238.093 45.1824 239.31 47.0263 239.939 49.4302H234.895C234.485 48.3102 233.829 47.4361 232.926 46.8078C232.024 46.1795 230.89 45.8654 229.523 45.8654C227.609 45.8654 226.078 46.5483 224.93 47.9141C223.809 49.2527 223.249 51.1376 223.249 53.5688C223.249 56 223.809 57.8985 224.93 59.2644C226.078 60.6302 227.609 61.3132 229.523 61.3132C232.229 61.3132 234.02 60.1249 234.895 57.7483H239.939C239.283 60.0429 238.052 61.8732 236.248 63.239C234.444 64.5776 232.202 65.2468 229.523 65.2468C227.363 65.2468 225.449 64.7688 223.782 63.8127C222.114 62.8293 220.802 61.4634 219.845 59.7151C218.915 57.9395 218.451 55.8907 218.451 53.5688ZM253.538 53.6097L263.954 64.878H257.639L249.273 55.1668V64.878H244.598V34.5561H249.273V52.1756L257.475 42.3005H263.954L253.538 53.6097Z" fill="#F5F8F2"/>
<path fill-rule="evenodd" clip-rule="evenodd" d="M92.8598 73.4927C94.1988 70.7733 94.9525 67.7021 94.9525 64.4512C94.9525 53.3129 86.1006 44.2836 75.1813 44.2836C69.7899 44.2836 64.903 46.4845 61.336 50.0536C57.8141 48.2577 53.9325 47.0863 49.8311 46.6818C55.3769 38.4655 64.6626 33.0793 75.1813 33.0793C92.1672 33.0793 105.937 47.125 105.937 64.4512C105.937 71.398 103.723 77.8171 99.977 83.0154C98.4859 79.2171 96.0044 75.9323 92.8598 73.4927Z" fill="url(#paint0_linear_315_220)"/>
<path fill-rule="evenodd" clip-rule="evenodd" d="M79.4637 80.1372H68.5901C68.5901 77.5358 68.1556 75.038 67.3563 72.7151C70.8498 70.3259 75.0526 68.9322 79.5749 68.9322C91.7076 68.9322 101.543 78.9651 101.543 91.3408C101.543 103.717 91.7076 113.749 79.5749 113.749L46.622 113.75C28.4227 113.75 13.6693 98.6998 13.6693 80.1362C13.6693 61.5722 28.4227 46.5232 46.622 46.5232C60.9987 46.5232 73.2252 55.9141 77.7267 69.0103C73.9097 69.3345 70.3686 70.6549 67.3563 72.7151C64.3536 63.9867 56.2049 57.7275 46.622 57.7275C34.4891 57.7275 24.6536 67.7602 24.6536 80.1362C24.6536 92.5123 34.4891 102.545 46.622 102.545L79.5749 102.545C85.641 102.545 90.5589 97.5289 90.5589 91.3408C90.5589 85.1528 85.641 80.1367 79.5749 80.1367L79.4637 80.1372Z" fill="url(#paint1_linear_315_220)"/>
<defs>
<linearGradient id="paint0_linear_315_220" x1="77.8842" y1="33.0793" x2="77.8842" y2="83.0154" gradientUnits="userSpaceOnUse">
<stop stop-color="#EFC977"/>
<stop offset="1" stop-color="#E07256"/>
</linearGradient>
<linearGradient id="paint1_linear_315_220" x1="57.6063" y1="46.5232" x2="57.6063" y2="113.75" gradientUnits="userSpaceOnUse">
<stop stop-color="#B2D4F7"/>
<stop offset="1" stop-color="#D9E2F3"/>
</linearGradient>
</defs>
</svg>
