<!--

This icon is composed of two icons:

- - A drop - - - - - - - - - - - - - - - - - - - - - -

Copyright 2021 MingCute Design

Licensed under the Apache License, Version 2.0 (the "License");
you may not use this file except in compliance with the License.
You may obtain a copy of the License at

    http://www.apache.org/licenses/LICENSE-2.0

Unless required by applicable law or agreed to in writing, software
distributed under the License is distributed on an "AS IS" BASIS,
WITHOUT WARRANTIES OR CONDITIONS OF ANY KIND, either express or implied.
See the License for the specific language governing permissions and
limitations under the License.


- - and a wind (duplicated) - - - - - - - - - - - - - -

Copyright (c) 2015, Erik Flowers <https://github.com/erikflowers>,
with Reserved Font Name Weather Icons.

This Font Software is licensed under the SIL Open Font License, Version 1.1.
This license is copied below, and is also available with a FAQ at:
http://scripts.sil.org/OFL

permits
Distribution, Reproduction, Embedding, DerivativeWorks

requires
Attribution, Notice, ShareAlike, DerivativeRenaming, BundlingWhenSelling

-->

<svg width="12" height="12" viewBox="0 0 12 12" fill="none" xmlns="http://www.w3.org/2000/svg">
<g clip-path="url(#clip0_73_2689)">
<mask id="mask0_73_2689" style="mask-type:alpha" maskUnits="userSpaceOnUse" x="0" y="0" width="32" height="32">
<path fill-rule="evenodd" clip-rule="evenodd" d="M32 0H0V5.90603C0.269205 5.31083 0.649353 4.76452 1.02478 4.30673C1.52136 3.70664 2.07667 3.15563 2.68275 2.66159H2.68317C2.77236 2.58946 2.88438 2.55 3 2.55C3.11562 2.55 3.22764 2.58946 3.31683 2.66159C3.92308 3.15574 4.47853 3.70689 4.97522 4.30714C5.66709 5.15038 6.375 6.2947 6.375 7.49154C6.375 8.369 6.01942 9.21052 5.38649 9.83097C4.75355 10.4514 3.89511 10.8 3 10.8C2.10489 10.8 1.24645 10.4514 0.613515 9.83097C0.364486 9.58685 0.158393 9.30851 0 9.00723V32H32V0Z" fill="#FFFFFF"/>
</mask>
<g mask="url(#mask0_73_2689)">
<path d="M10.8748 3.9208C10.8748 4.06752 10.8342 4.19423 10.7582 4.29426C10.6804 4.39153 10.5765 4.44429 10.4692 4.44097L4.34473 4.44097C4.23319 4.44097 4.14193 4.39429 4.07096 4.29426C3.99998 4.19423 3.95942 4.06752 3.95942 3.91413C3.95942 3.76742 3.99491 3.64738 4.07096 3.55401C4.14193 3.46065 4.23319 3.4073 4.34473 3.4073L10.4692 3.4073C10.5807 3.4073 10.6821 3.45398 10.7582 3.55401C10.7966 3.60041 10.827 3.65723 10.8471 3.72056C10.8672 3.78388 10.8767 3.85221 10.8748 3.9208ZM9.65291 5.85477C9.65291 6.00149 9.61235 6.12153 9.53631 6.22156C9.49932 6.27104 9.45509 6.31013 9.40629 6.3365C9.35749 6.36286 9.30514 6.37594 9.25239 6.37495L3.12288 6.37495C3.01642 6.37495 2.92516 6.3216 2.84911 6.22156C2.77306 6.12153 2.73757 6.00149 2.73757 5.85477C2.73757 5.70806 2.77306 5.58802 2.84911 5.48132C2.92516 5.38128 3.01642 5.32793 3.12288 5.32793L9.24732 5.32793C9.35886 5.32793 9.45519 5.38129 9.53124 5.48132C9.60728 5.58135 9.65291 5.70806 9.65291 5.85477ZM8.83159 2.02684C8.83159 2.16689 8.79103 2.28693 8.70991 2.38696C8.63893 2.48033 8.54768 2.53368 8.43614 2.53368L2.30156 2.53368C2.19002 2.53368 2.0937 2.48699 2.01765 2.38696C1.9416 2.2936 1.90611 2.17356 1.90611 2.02684C1.90611 1.88013 1.94667 1.75342 2.02272 1.65338C2.09876 1.55335 2.19509 1.5 2.30663 1.5L8.43614 1.5C8.54768 1.5 8.63894 1.55335 8.72005 1.65338C8.80117 1.75342 8.83159 1.88013 8.83159 2.02684ZM3.46764 3.9208C3.46764 4.07419 3.43215 4.20089 3.3561 4.30093C3.28005 4.40096 3.18372 4.44764 3.06712 4.44764L0.775521 4.44764C0.658914 4.44764 0.562586 4.40096 0.486537 4.30093C0.410489 4.20089 0.374999 4.07418 0.374999 3.92747C0.374999 3.78075 0.410489 3.66071 0.486537 3.56735C0.562586 3.47399 0.658914 3.42064 0.770452 3.42064L3.06205 3.42064C3.17865 3.42064 3.27498 3.46732 3.35103 3.56735C3.43215 3.65405 3.46764 3.77409 3.46764 3.9208Z" fill="#F0EED0"/>
<path d="M1.50024 7.77921C1.50024 7.6325 1.5408 7.50579 1.61685 7.40575C1.69463 7.30848 1.79854 7.25573 1.90583 7.25904L8.03027 7.25904C8.14181 7.25904 8.23307 7.30572 8.30404 7.40575C8.37502 7.50579 8.41558 7.6325 8.41558 7.78588C8.41558 7.93259 8.38009 8.05263 8.30404 8.146C8.23307 8.23936 8.14181 8.29271 8.03027 8.29271H1.90583C1.79429 8.29271 1.6929 8.24603 1.61685 8.146C1.57839 8.09961 1.54804 8.04278 1.52791 7.97946C1.50777 7.91613 1.49833 7.84781 1.50024 7.77921ZM2.72209 5.84524C2.72209 5.69852 2.76265 5.57848 2.83869 5.47845C2.87568 5.42898 2.91991 5.38988 2.96871 5.36352C3.01751 5.33715 3.06986 5.32407 3.12261 5.32506L9.25212 5.32506C9.35858 5.32506 9.44984 5.37842 9.52589 5.47845C9.60194 5.57848 9.63743 5.69852 9.63743 5.84524C9.63743 5.99195 9.60194 6.11199 9.52589 6.21869C9.44984 6.31873 9.35858 6.37208 9.25212 6.37208L3.12768 6.37208C3.01614 6.37208 2.91981 6.31873 2.84376 6.21869C2.76772 6.11866 2.72209 5.99195 2.72209 5.84524ZM3.54341 9.67317C3.54341 9.53312 3.58397 9.41308 3.66509 9.31305C3.73607 9.21969 3.82732 9.16634 3.93886 9.16634H10.0734C10.185 9.16634 10.2813 9.21302 10.3574 9.31305C10.4334 9.40642 10.4689 9.52646 10.4689 9.67317C10.4689 9.81989 10.4283 9.94659 10.3523 10.0466C10.2762 10.1467 10.1799 10.2 10.0684 10.2H3.93886C3.82732 10.2 3.73607 10.1467 3.65495 10.0466C3.57383 9.94659 3.54341 9.81989 3.54341 9.67317ZM8.90736 7.77921C8.90736 7.62583 8.94285 7.49912 9.0189 7.39908C9.09495 7.29905 9.19128 7.25237 9.30788 7.25237L11.5995 7.25237C11.7161 7.25237 11.8124 7.29905 11.8885 7.39908C11.9645 7.49912 12 7.62583 12 7.77254C12 7.91926 11.9645 8.0393 11.8885 8.13266C11.8124 8.22603 11.7161 8.27938 11.6045 8.27938L9.31295 8.27938C9.19635 8.27938 9.10002 8.23269 9.02397 8.13266C8.94285 8.04597 8.90736 7.92593 8.90736 7.77921Z" fill="#F0EED0"/>
</g>
</g>
<path fill-rule="evenodd" clip-rule="evenodd" d="M2.77118 3.83116C2.83559 3.77869 2.91649 3.75 3 3.75C3.08351 3.75 3.16441 3.77869 3.22882 3.83116C3.66667 4.19054 4.06782 4.59137 4.42655 5.02792C4.92623 5.64119 5.4375 6.47342 5.4375 7.34384C5.4375 7.982 5.18069 8.59401 4.72357 9.04525C4.26645 9.4965 3.64647 9.75 3 9.75C2.35353 9.75 1.73355 9.4965 1.27643 9.04525C0.819307 8.59401 0.5625 7.982 0.5625 7.34384C0.5625 6.47342 1.07377 5.64119 1.57345 5.02762C1.9321 4.59119 2.33315 4.19046 2.77087 3.83116H2.77118Z" fill="#F0EED0"/>
<defs>
<clipPath id="clip0_73_2689">
<rect width="12" height="12" fill="white"/>
</clipPath>
</defs>
</svg>
