<!--

CC BY 4.0 License (https://creativecommons.org/licenses/by/4.0/)

The Font Awesome Free download is licensed under a Creative Commons
Attribution 4.0 International License and applies to all icons packaged
as SVG and JS file types.

This icon has been modified, with the addition of three horizontal bars
representing a temperature scale.

-->

<svg width="12" height="12" viewBox="0 0 12 12" fill="none" xmlns="http://www.w3.org/2000/svg">
<path d="M10.5 2.625L8.25 2.625" stroke="#F0EED0" stroke-width="1.13" stroke-linecap="round"/>
<path d="M10.5 6.375L8.25 6.375" stroke="#F0EED0" stroke-width="1.13" stroke-linecap="round"/>
<path d="M10.5 4.5L8.25 4.5" stroke="#F0EED0" stroke-width="1.13" stroke-linecap="round"/>
<g clip-path="url(#clip0_73_2730)">
<path d="M4.03125 2.625C3.56543 2.625 3.1875 3.00293 3.1875 3.46875V6.36035C3.1875 6.66445 3.0627 6.92109 2.91855 7.10742C2.73398 7.34648 2.625 7.64355 2.625 7.96875C2.625 8.7457 3.2543 9.375 4.03125 9.375C4.8082 9.375 5.4375 8.7457 5.4375 7.96875C5.4375 7.64355 5.32852 7.34648 5.14395 7.10918C4.9998 6.92285 4.875 6.66621 4.875 6.36211V3.46875C4.875 3.00293 4.49707 2.625 4.03125 2.625ZM2.0625 3.46875C2.0625 2.38242 2.94316 1.5 4.03125 1.5C5.11934 1.5 6 2.38066 6 3.46875V6.36035C6 6.36211 6.00176 6.36562 6.00352 6.3709C6.00703 6.38145 6.01758 6.39902 6.0334 6.42012C6.36562 6.84902 6.5625 7.38691 6.5625 7.96875C6.5625 9.36621 5.42871 10.5 4.03125 10.5C2.63379 10.5 1.5 9.36621 1.5 7.96875C1.5 7.38516 1.69687 6.84727 2.0291 6.42012C2.04492 6.39902 2.05547 6.38145 2.05898 6.3709C2.06074 6.36562 2.0625 6.36211 2.0625 6.36035V3.46875ZM4.875 7.96875C4.875 8.43457 4.49707 8.8125 4.03125 8.8125C3.56543 8.8125 3.1875 8.43457 3.1875 7.96875C3.1875 7.60137 3.42305 7.28848 3.75 7.17246V5.01562C3.75 4.86094 3.87656 4.73438 4.03125 4.73438C4.18594 4.73438 4.3125 4.86094 4.3125 5.01562V7.17246C4.63945 7.28848 4.875 7.60137 4.875 7.96875Z" fill="#F0EED0"/>
</g>
<defs>
<clipPath id="clip0_73_2730">
<rect width="7.5" height="12" fill="white" transform="translate(1.5)"/>
</clipPath>
</defs>
</svg>
