<!--

CC BY 4.0 License (https://creativecommons.org/licenses/by/4.0/)

The Font Awesome Free download is licensed under a Creative Commons
Attribution 4.0 International License and applies to all icons packaged
as SVG and JS file types.

This icon has been modified, with the addition of three horizontal bars
representing a temperature scale.

-->

<svg width="15" height="15" viewBox="0 0 15 15" fill="none" xmlns="http://www.w3.org/2000/svg">
<path d="M13.125 3.28125H10.3125" stroke="#F0EED0" stroke-width="1.4125" stroke-linecap="round"/>
<path d="M13.125 7.96875H10.3125" stroke="#F0EED0" stroke-width="1.4125" stroke-linecap="round"/>
<path d="M13.125 5.625H10.3125" stroke="#F0EED0" stroke-width="1.4125" stroke-linecap="round"/>
<path d="M5.03906 3.28125C4.45679 3.28125 3.98438 3.75366 3.98438 4.33594V7.95044C3.98438 8.33056 3.82838 8.65136 3.64819 8.88427C3.41748 9.1831 3.28125 9.55444 3.28125 9.96094C3.28125 10.9321 4.06787 11.7188 5.03906 11.7188C6.01025 11.7188 6.79688 10.9321 6.79688 9.96094C6.79688 9.55444 6.66065 9.1831 6.42994 8.88647C6.24975 8.65356 6.09375 8.33276 6.09375 7.95264V4.33594C6.09375 3.75366 5.62134 3.28125 5.03906 3.28125ZM2.57812 4.33594C2.57812 2.97802 3.67895 1.875 5.03906 1.875C6.39917 1.875 7.5 2.97583 7.5 4.33594V7.95044C7.5 7.95264 7.5022 7.95703 7.5044 7.96363C7.50879 7.97681 7.52198 7.99877 7.54175 8.02515C7.95703 8.56127 8.20312 9.23364 8.20312 9.96094C8.20312 11.7078 6.78589 13.125 5.03906 13.125C3.29224 13.125 1.875 11.7078 1.875 9.96094C1.875 9.23145 2.12109 8.55909 2.53637 8.02515C2.55615 7.99877 2.56934 7.97681 2.57372 7.96363C2.57592 7.95703 2.57812 7.95264 2.57812 7.95044V4.33594ZM6.09375 9.96094C6.09375 10.5432 5.62134 11.0156 5.03906 11.0156C4.45679 11.0156 3.98438 10.5432 3.98438 9.96094C3.98438 9.50171 4.27881 9.1106 4.6875 8.96558V6.26953C4.6875 6.07618 4.8457 5.91797 5.03906 5.91797C5.23242 5.91797 5.39062 6.07618 5.39062 6.26953V8.96558C5.79931 9.1106 6.09375 9.50171 6.09375 9.96094Z" fill="#F0EED0"/>
</svg>
