<!--

The MIT License (MIT)

Copyright (c) 2018 Megumi Hano

Permission is hereby granted, free of charge, to any person obtaining a copy
of this software and associated documentation files (the "Software"), to deal
in the Software without restriction, including without limitation the rights
to use, copy, modify, merge, publish, distribute, sublicense, and/or sell
copies of the Software, and to permit persons to whom the Software is
furnished to do so, subject to the following conditions:

The above copyright notice and this permission notice shall be included in all
copies or substantial portions of the Software.

THE SOFTWARE IS PROVIDED "AS IS", WITHOUT WARRANTY OF ANY KIND, EXPRESS OR
IMPLIED, INCLUDING BUT NOT LIMITED TO THE WARRANTIES OF MERCHANTABILITY,
FITNESS FOR A PARTICULAR PURPOSE AND NONINFRINGEMENT. IN NO EVENT SHALL THE
AUTHORS OR COPYRIGHT HOLDERS BE LIABLE FOR ANY CLAIM, DAMAGES OR OTHER
LIABILITY, WHETHER IN AN ACTION OF CONTRACT, TORT OR OTHERWISE, ARISING FROM,
OUT OF OR IN CONNECTION WITH THE SOFTWARE OR THE USE OR OTHER DEALINGS IN THE
SOFTWARE.

-->

<svg width="12" height="12" viewBox="0 0 12 12" fill="none" xmlns="http://www.w3.org/2000/svg">
<path d="M11.0625 7.6875H0.9375C0.788316 7.6875 0.645242 7.62824 0.539752 7.52275C0.434263 7.41726 0.375 7.27418 0.375 7.125C0.375 6.97582 0.434263 6.83274 0.539752 6.72725C0.645242 6.62176 0.788316 6.5625 0.9375 6.5625H1.5C1.5 5.36903 1.97411 4.22443 2.81802 3.38052C3.66193 2.53661 4.80653 2.0625 6 2.0625C7.19347 2.0625 8.33807 2.53661 9.18198 3.38052C10.0259 4.22443 10.5 5.36903 10.5 6.5625H11.0625C11.2117 6.5625 11.3548 6.62176 11.4602 6.72725C11.5657 6.83274 11.625 6.97582 11.625 7.125C11.625 7.27418 11.5657 7.41726 11.4602 7.52275C11.3548 7.62824 11.2117 7.6875 11.0625 7.6875ZM9.375 9.9375H2.625C2.47582 9.9375 2.33274 9.87824 2.22725 9.77275C2.12176 9.66726 2.0625 9.52418 2.0625 9.375C2.0625 9.22582 2.12176 9.08274 2.22725 8.97725C2.33274 8.87176 2.47582 8.8125 2.625 8.8125H9.375C9.52418 8.8125 9.66726 8.87176 9.77275 8.97725C9.87824 9.08274 9.9375 9.22582 9.9375 9.375C9.9375 9.52418 9.87824 9.66726 9.77275 9.77275C9.66726 9.87824 9.52418 9.9375 9.375 9.9375ZM2.625 6.5625H9.375C9.375 5.66739 9.01942 4.80895 8.38649 4.17601C7.75355 3.54308 6.89511 3.1875 6 3.1875C5.10489 3.1875 4.24645 3.54308 3.61351 4.17601C2.98058 4.80895 2.625 5.66739 2.625 6.5625Z" fill="#F0EED0"/>
</svg>
