<!--

The MIT License (MIT)

Copyright (c) 2018 Megumi Hano

Permission is hereby granted, free of charge, to any person obtaining a copy
of this software and associated documentation files (the "Software"), to deal
in the Software without restriction, including without limitation the rights
to use, copy, modify, merge, publish, distribute, sublicense, and/or sell
copies of the Software, and to permit persons to whom the Software is
furnished to do so, subject to the following conditions:

The above copyright notice and this permission notice shall be included in all
copies or substantial portions of the Software.

THE SOFTWARE IS PROVIDED "AS IS", WITHOUT WARRANTY OF ANY KIND, EXPRESS OR
IMPLIED, INCLUDING BUT NOT LIMITED TO THE WARRANTIES OF MERCHANTABILITY,
FITNESS FOR A PARTICULAR PURPOSE AND NONINFRINGEMENT. IN NO EVENT SHALL THE
AUTHORS OR COPYRIGHT HOLDERS BE LIABLE FOR ANY CLAIM, DAMAGES OR OTHER
LIABILITY, WHETHER IN AN ACTION OF CONTRACT, TORT OR OTHERWISE, ARISING FROM,
OUT OF OR IN CONNECTION WITH THE SOFTWARE OR THE USE OR OTHER DEALINGS IN THE
SOFTWARE.

-->

<svg width="15" height="15" viewBox="0 0 15 15" fill="none" xmlns="http://www.w3.org/2000/svg">
<path d="M13.8281 9.60938H1.17188C0.985395 9.60938 0.806553 9.5353 0.67469 9.40344C0.542829 9.27157 0.46875 9.09272 0.46875 8.90625C0.46875 8.71978 0.542829 8.54093 0.67469 8.40906C0.806553 8.2772 0.985395 8.20312 1.17188 8.20312H1.875C1.875 6.71129 2.46764 5.28054 3.52253 4.22565C4.57741 3.17076 6.00816 2.57812 7.5 2.57812C8.99184 2.57812 10.4226 3.17076 11.4775 4.22565C12.5324 5.28054 13.125 6.71129 13.125 8.20312H13.8281C14.0146 8.20312 14.1935 8.2772 14.3253 8.40906C14.4571 8.54093 14.5312 8.71978 14.5312 8.90625C14.5312 9.09272 14.4571 9.27157 14.3253 9.40344C14.1935 9.5353 14.0146 9.60938 13.8281 9.60938ZM11.7188 12.4219H3.28125C3.09478 12.4219 2.91593 12.3478 2.78406 12.2159C2.6522 12.0841 2.57812 11.9052 2.57812 11.7188C2.57812 11.5323 2.6522 11.3534 2.78406 11.2216C2.91593 11.0897 3.09478 11.0156 3.28125 11.0156H11.7188C11.9052 11.0156 12.0841 11.0897 12.2159 11.2216C12.3478 11.3534 12.4219 11.5323 12.4219 11.7188C12.4219 11.9052 12.3478 12.0841 12.2159 12.2159C12.0841 12.3478 11.9052 12.4219 11.7188 12.4219ZM3.28125 8.20312H11.7188C11.7188 7.08424 11.2743 6.01119 10.4831 5.22001C9.69194 4.42885 8.61889 3.98438 7.5 3.98438C6.38111 3.98438 5.30806 4.42885 4.51689 5.22001C3.72572 6.01119 3.28125 7.08424 3.28125 8.20312Z" fill="#F0EED0"/>
</svg>
