<!--

CC BY 4.0 License (https://creativecommons.org/licenses/by/4.0/)

The Font Awesome Free download is licensed under a Creative Commons
Attribution 4.0 International License and applies to all icons packaged
as SVG and JS file types.

-->

<svg width="12" height="12" viewBox="0 0 12 12" fill="none" xmlns="http://www.w3.org/2000/svg">
<g clip-path="url(#clip0_73_2679)">
<path d="M11.4181 5.72197C10.3854 3.70704 8.34094 2.34375 5.99999 2.34375C3.65904 2.34375 1.61401 3.70799 0.581884 5.72216C0.538322 5.80833 0.515625 5.90354 0.515625 6.0001C0.515625 6.09665 0.538322 6.19186 0.581884 6.27803C1.61458 8.29296 3.65904 9.65625 5.99999 9.65625C8.34094 9.65625 10.386 8.29201 11.4181 6.27784C11.4617 6.19167 11.4844 6.09646 11.4844 5.9999C11.4844 5.90335 11.4617 5.80814 11.4181 5.72197ZM5.99999 8.74219C5.45764 8.74219 4.92746 8.58136 4.47651 8.28005C4.02556 7.97873 3.67409 7.55046 3.46654 7.04939C3.25899 6.54832 3.20468 5.99696 3.31049 5.46503C3.4163 4.93309 3.67747 4.44448 4.06097 4.06098C4.44447 3.67748 4.93308 3.41631 5.46502 3.3105C5.99695 3.20469 6.54831 3.259 7.04938 3.46655C7.55045 3.6741 7.97872 4.02557 8.28004 4.47652C8.58135 4.92747 8.74218 5.45765 8.74218 6C8.74235 6.36016 8.67154 6.71682 8.5338 7.0496C8.39605 7.38237 8.19407 7.68474 7.9394 7.93941C7.68473 8.19408 7.38236 8.39606 7.04959 8.53381C6.71681 8.67155 6.36015 8.74236 5.99999 8.74219ZM5.99999 4.17188C5.83682 4.17416 5.6747 4.19843 5.51801 4.24405C5.64717 4.41956 5.70914 4.63555 5.69271 4.85284C5.67627 5.07013 5.5825 5.27434 5.42841 5.42843C5.27433 5.58251 5.07012 5.67628 4.85283 5.69272C4.63554 5.70915 4.41955 5.64718 4.24404 5.51802C4.14409 5.88623 4.16214 6.27652 4.29562 6.63394C4.42911 6.99136 4.67132 7.29793 4.98816 7.51048C5.30501 7.72303 5.68053 7.83088 6.06187 7.81883C6.44322 7.80679 6.81118 7.67545 7.11398 7.44333C7.41678 7.2112 7.63915 6.88996 7.74982 6.52482C7.86048 6.15969 7.85385 5.76904 7.73086 5.40787C7.60788 5.0467 7.37473 4.73319 7.06423 4.51147C6.75373 4.28975 6.38152 4.17098 5.99999 4.17188Z" fill="#F0EED0"/>
</g>
<defs>
<clipPath id="clip0_73_2679">
<rect width="10.9688" height="9.75" fill="white" transform="translate(0.515625 1.125)"/>
</clipPath>
</defs>
</svg>
