<!--

MIT License

Copyright (c) 2020-2022 Paweł Kuna

Permission is hereby granted, free of charge, to any person obtaining a copy
of this software and associated documentation files (the "Software"), to deal
in the Software without restriction, including without limitation the rights
to use, copy, modify, merge, publish, distribute, sublicense, and/or sell
copies of the Software, and to permit persons to whom the Software is
furnished to do so, subject to the following conditions:

The above copyright notice and this permission notice shall be included in all
copies or substantial portions of the Software.

THE SOFTWARE IS PROVIDED "AS IS", WITHOUT WARRANTY OF ANY KIND, EXPRESS OR
IMPLIED, INCLUDING BUT NOT LIMITED TO THE WARRANTIES OF MERCHANTABILITY,
FITNESS FOR A PARTICULAR PURPOSE AND NONINFRINGEMENT. IN NO EVENT SHALL THE
AUTHORS OR COPYRIGHT HOLDERS BE LIABLE FOR ANY CLAIM, DAMAGES OR OTHER
LIABILITY, WHETHER IN AN ACTION OF CONTRACT, TORT OR OTHERWISE, ARISING FROM,
OUT OF OR IN CONNECTION WITH THE SOFTWARE OR THE USE OR OTHER DEALINGS IN THE
SOFTWARE.

-->

<svg width="12" height="12" viewBox="0 0 12 12" fill="none" xmlns="http://www.w3.org/2000/svg">
<path d="M3.25 4.00002H7.5C7.73222 4.00446 7.96108 3.94412 8.16092 3.82576C8.36075 3.7074 8.52366 3.5357 8.63137 3.32993C8.73908 3.12416 8.78733 2.89244 8.77071 2.66078C8.75409 2.42912 8.67325 2.20667 8.53726 2.01838C8.40128 1.83009 8.21552 1.68342 8.00083 1.5948C7.78615 1.50619 7.55101 1.47914 7.32181 1.51669C7.09261 1.55424 6.8784 1.65491 6.70321 1.8074C6.52803 1.95989 6.39879 2.15818 6.33 2.38002M2.25 6.00002H10C10.2322 5.99557 10.4611 6.05591 10.6609 6.17427C10.8608 6.29263 11.0237 6.46433 11.1314 6.6701C11.2391 6.87587 11.2873 7.10759 11.2707 7.33925C11.2541 7.57091 11.1732 7.79336 11.0373 7.98165C10.9013 8.16994 10.7155 8.31661 10.5008 8.40523C10.2861 8.49384 10.051 8.52089 9.82181 8.48334C9.59261 8.44579 9.3784 8.34512 9.20321 8.19263C9.02803 8.04014 8.89879 7.84185 8.83 7.62002M2.75 8.00002H5.5C5.73222 7.99557 5.96108 8.05591 6.16092 8.17427C6.36075 8.29263 6.52366 8.46433 6.63137 8.6701C6.73908 8.87587 6.78733 9.10759 6.77071 9.33925C6.75409 9.57091 6.67325 9.79336 6.53726 9.98165C6.40128 10.1699 6.21552 10.3166 6.00083 10.4052C5.78615 10.4938 5.55101 10.5209 5.32181 10.4833C5.09261 10.4458 4.8784 10.3451 4.70321 10.1926C4.52803 10.0401 4.39879 9.84185 4.33 9.62002" stroke="#F0EED0" stroke-width="1.05" stroke-linecap="round" stroke-linejoin="round"/>
</svg>
