<!--

This icon is composed of two icons:

- - A drop - - - - - - - - - - - - - - - - - - - - - -

Copyright 2021 MingCute Design

Licensed under the Apache License, Version 2.0 (the "License");
you may not use this file except in compliance with the License.
You may obtain a copy of the License at

    http://www.apache.org/licenses/LICENSE-2.0

Unless required by applicable law or agreed to in writing, software
distributed under the License is distributed on an "AS IS" BASIS,
WITHOUT WARRANTIES OR CONDITIONS OF ANY KIND, either express or implied.
See the License for the specific language governing permissions and
limitations under the License.


- - and a wind (duplicated) - - - - - - - - - - - - - -

Copyright (c) 2015, Erik Flowers <https://github.com/erikflowers>,
with Reserved Font Name Weather Icons.

This Font Software is licensed under the SIL Open Font License, Version 1.1.
This license is copied below, and is also available with a FAQ at:
http://scripts.sil.org/OFL

permits
Distribution, Reproduction, Embedding, DerivativeWorks

requires
Attribution, Notice, ShareAlike, DerivativeRenaming, BundlingWhenSelling

-->

<svg width="15" height="15" viewBox="0 0 15 15" fill="none" xmlns="http://www.w3.org/2000/svg">
<g clip-path="url(#clip0_162_1040)">
<mask id="mask0_162_1040" style="mask-type:alpha" maskUnits="userSpaceOnUse" x="0" y="0" width="40" height="40">
<path fill-rule="evenodd" clip-rule="evenodd" d="M40 0H0V7.38254C0.336506 6.63854 0.811691 5.95565 1.28098 5.38341C1.9017 4.6333 2.59584 3.94454 3.35344 3.32699H3.35396C3.46545 3.23683 3.60547 3.1875 3.75 3.1875C3.89453 3.1875 4.03455 3.23683 4.14604 3.32699C4.90385 3.94468 5.59816 4.63361 6.21903 5.38392C7.08386 6.43797 7.96875 7.86837 7.96875 9.36442C7.96875 10.4612 7.52427 11.5131 6.73311 12.2887C5.94194 13.0642 4.86889 13.5 3.75 13.5C2.63111 13.5 1.55806 13.0642 0.766894 12.2887C0.455608 11.9836 0.197991 11.6356 0 11.259V40H40V0Z" fill="white"/>
</mask>
<g mask="url(#mask0_162_1040)">
<path d="M13.5935 4.901C13.5935 5.0844 13.5428 5.24279 13.4478 5.36783C13.3505 5.48941 13.2206 5.55536 13.0865 5.55121H5.43091C5.29149 5.55121 5.17741 5.49286 5.0887 5.36783C4.99998 5.24279 4.94928 5.0844 4.94928 4.89266C4.94928 4.70927 4.99364 4.55922 5.0887 4.44251C5.17741 4.32581 5.29149 4.25912 5.43091 4.25912H13.0865C13.2259 4.25912 13.3526 4.31747 13.4478 4.44251C13.4958 4.50051 13.5338 4.57154 13.5589 4.6507C13.584 4.72985 13.5959 4.81526 13.5935 4.901ZM12.0661 7.31846C12.0661 7.50186 12.0154 7.65191 11.9204 7.77695C11.8742 7.8388 11.8189 7.88766 11.7579 7.92063C11.6969 7.95358 11.6314 7.96992 11.5655 7.96869H3.9036C3.77053 7.96869 3.65645 7.902 3.56139 7.77695C3.46633 7.65191 3.42196 7.50186 3.42196 7.31846C3.42196 7.13508 3.46633 6.98502 3.56139 6.85165C3.65645 6.7266 3.77053 6.65991 3.9036 6.65991H11.5592C11.6986 6.65991 11.819 6.72661 11.9141 6.85165C12.0091 6.97669 12.0661 7.13508 12.0661 7.31846ZM11.0395 2.53355C11.0395 2.70861 10.9888 2.85866 10.8874 2.9837C10.7987 3.10041 10.6846 3.1671 10.5452 3.1671H2.87695C2.73753 3.1671 2.61713 3.10874 2.52206 2.9837C2.427 2.867 2.38264 2.71695 2.38264 2.53355C2.38264 2.35016 2.43334 2.19178 2.5284 2.06673C2.62345 1.94169 2.74386 1.875 2.88329 1.875H10.5452C10.6846 1.875 10.7987 1.94169 10.9001 2.06673C11.0015 2.19178 11.0395 2.35016 11.0395 2.53355ZM4.33455 4.901C4.33455 5.09274 4.29019 5.25111 4.19513 5.37616C4.10006 5.5012 3.97965 5.55955 3.8339 5.55955H0.969402C0.823644 5.55955 0.703234 5.5012 0.608173 5.37616C0.513113 5.25111 0.46875 5.09272 0.46875 4.90934C0.46875 4.72594 0.513113 4.57589 0.608173 4.45919C0.703234 4.34249 0.823644 4.2758 0.963066 4.2758H3.82756C3.97331 4.2758 4.09373 4.33415 4.18879 4.45919C4.29019 4.56756 4.33455 4.71761 4.33455 4.901Z" fill="#F0EED0"/>
<path d="M1.8753 9.724C1.8753 9.54062 1.926 9.38223 2.02106 9.25718C2.11829 9.13559 2.24818 9.06965 2.38229 9.07379H10.0378C10.1773 9.07379 10.2913 9.13214 10.3801 9.25718C10.4688 9.38223 10.5195 9.54062 10.5195 9.73234C10.5195 9.91573 10.4751 10.0658 10.3801 10.1825C10.2913 10.2992 10.1773 10.3659 10.0378 10.3659H2.38229C2.24286 10.3659 2.11613 10.3075 2.02106 10.1825C1.97299 10.1245 1.93505 10.0535 1.90989 9.97432C1.88471 9.89515 1.87291 9.80975 1.8753 9.724ZM3.40261 7.30654C3.40261 7.12314 3.45331 6.97309 3.54836 6.84805C3.5946 6.78622 3.64989 6.73734 3.71089 6.70439C3.77189 6.67143 3.83733 6.65508 3.90326 6.65632H11.5652C11.6982 6.65632 11.8123 6.72302 11.9074 6.84805C12.0024 6.97309 12.0468 7.12314 12.0468 7.30654C12.0468 7.48993 12.0024 7.63998 11.9074 7.77335C11.8123 7.8984 11.6982 7.96509 11.5652 7.96509H3.9096C3.77018 7.96509 3.64976 7.8984 3.5547 7.77335C3.45965 7.64832 3.40261 7.48993 3.40261 7.30654ZM4.42926 12.0915C4.42926 11.9164 4.47996 11.7663 4.58136 11.6413C4.67009 11.5246 4.78415 11.4579 4.92358 11.4579H12.5918C12.7313 11.4579 12.8516 11.5163 12.9468 11.6413C13.0418 11.758 13.0861 11.9081 13.0861 12.0915C13.0861 12.2749 13.0354 12.4332 12.9404 12.5582C12.8453 12.6834 12.7249 12.75 12.5855 12.75H4.92358C4.78415 12.75 4.67009 12.6834 4.56869 12.5582C4.46729 12.4332 4.42926 12.2749 4.42926 12.0915ZM11.1342 9.724C11.1342 9.53228 11.1786 9.37389 11.2736 9.24884C11.3687 9.1238 11.4891 9.06545 11.6349 9.06545H14.4994C14.6451 9.06545 14.7655 9.1238 14.8606 9.24884C14.9556 9.37389 15 9.53228 15 9.71567C15 9.89907 14.9556 10.0491 14.8606 10.1658C14.7655 10.2825 14.6451 10.3492 14.5056 10.3492H11.6412C11.4954 10.3492 11.375 10.2909 11.28 10.1658C11.1786 10.0575 11.1342 9.9074 11.1342 9.724Z" fill="#F0EED0"/>
</g>
<path fill-rule="evenodd" clip-rule="evenodd" d="M3.46397 4.78895C3.54449 4.72336 3.64561 4.6875 3.75 4.6875C3.85439 4.6875 3.95551 4.72336 4.03603 4.78895C4.58334 5.23818 5.08477 5.73921 5.53319 6.2849C6.15779 7.05149 6.79688 8.09178 6.79688 9.1798C6.79688 9.9775 6.47586 10.7425 5.90446 11.3066C5.33306 11.8706 4.55809 12.1875 3.75 12.1875C2.94191 12.1875 2.16694 11.8706 1.59554 11.3066C1.02413 10.7425 0.703125 9.9775 0.703125 9.1798C0.703125 8.09178 1.34221 7.05149 1.96681 6.28452C2.41512 5.73899 2.91644 5.23808 3.46359 4.78895H3.46397Z" fill="#F0EED0"/>
</g>
<defs>
<clipPath id="clip0_162_1040">
<rect width="15" height="15" fill="white"/>
</clipPath>
</defs>
</svg>
