<!--

This icon is composed of two icons:

- - A drop - - - - - - - - - - - - - - - - - - - - - -

Copyright 2021 MingCute Design

Licensed under the Apache License, Version 2.0 (the "License");
you may not use this file except in compliance with the License.
You may obtain a copy of the License at

    http://www.apache.org/licenses/LICENSE-2.0

Unless required by applicable law or agreed to in writing, software
distributed under the License is distributed on an "AS IS" BASIS,
WITHOUT WARRANTIES OR CONDITIONS OF ANY KIND, either express or implied.
See the License for the specific language governing permissions and
limitations under the License.


- - And a cloud - - - - - - - - - - - - - - - - - - - -

MIT License

Copyright (c) 2020 Arturo Wibawa

Permission is hereby granted, free of charge, to any person obtaining a copy
of this software and associated documentation files (the "Software"), to deal
in the Software without restriction, including without limitation the rights
to use, copy, modify, merge, publish, distribute, sublicense, and/or sell
copies of the Software, and to permit persons to whom the Software is
furnished to do so, subject to the following conditions:

The above copyright notice and this permission notice shall be included in all
copies or substantial portions of the Software.

THE SOFTWARE IS PROVIDED "AS IS", WITHOUT WARRANTY OF ANY KIND, EXPRESS OR
IMPLIED, INCLUDING BUT NOT LIMITED TO THE WARRANTIES OF MERCHANTABILITY,
FITNESS FOR A PARTICULAR PURPOSE AND NONINFRINGEMENT. IN NO EVENT SHALL THE
AUTHORS OR COPYRIGHT HOLDERS BE LIABLE FOR ANY CLAIM, DAMAGES OR OTHER
LIABILITY, WHETHER IN AN ACTION OF CONTRACT, TORT OR OTHERWISE, ARISING FROM,
OUT OF OR IN CONNECTION WITH THE SOFTWARE OR THE USE OR OTHER DEALINGS IN THE
SOFTWARE.

-->

<svg width="15" height="15" viewBox="0 0 15 15" fill="none" xmlns="http://www.w3.org/2000/svg">
<g clip-path="url(#clip0_162_1048)">
<mask id="mask0_162_1048" style="mask-type:alpha" maskUnits="userSpaceOnUse" x="0" y="0" width="15" height="15">
<path fill-rule="evenodd" clip-rule="evenodd" d="M0 0H15V15H11.4033C12.1129 14.8137 12.7671 14.4474 13.2956 13.9294C14.0868 13.1538 14.5312 12.1019 14.5312 11.005C14.5312 9.50899 13.6464 8.0786 12.7815 7.02455C12.1607 6.27422 11.4663 5.5853 10.7085 4.96761C10.597 4.87744 10.457 4.82812 10.3125 4.82812C10.168 4.82812 10.0279 4.87744 9.91646 4.96761H9.91594C9.15834 5.58516 8.4642 6.27391 7.84347 7.02402C6.97864 8.0786 6.09375 9.50899 6.09375 11.005C6.09375 12.1019 6.53823 13.1538 7.32939 13.9294C7.85785 14.4474 8.51206 14.8137 9.2217 15H0V0Z" fill="white"/>
</mask>
<g mask="url(#mask0_162_1048)">
<path d="M3.14637 5.3075C2.55526 5.45625 2.0388 5.81573 1.69403 6.3184C1.34927 6.82108 1.19993 7.43235 1.27407 8.03737C1.34821 8.64239 1.64072 9.19951 2.09667 9.60406C2.55261 10.0086 3.14058 10.2328 3.75012 10.2344H10.6251C11.0664 10.2341 11.5026 10.1403 11.905 9.95929C12.3075 9.77825 12.667 9.51404 12.96 9.18405C13.2529 8.85405 13.4726 8.46575 13.6047 8.0447C13.7369 7.62366 13.7782 7.17942 13.7262 6.74121C13.6742 6.30301 13.53 5.88079 13.3031 5.50234C13.0762 5.12389 12.7717 4.79778 12.4096 4.54549C12.0476 4.2932 11.6362 4.12045 11.2026 4.0386C10.769 3.95675 10.323 3.96766 9.89387 4.07063L9.06262 4.29688" stroke="#F0EED0" stroke-width="1.2625" stroke-linecap="round" stroke-linejoin="round"/>
<path d="M9.89385 4.07241C9.68023 3.22651 9.15296 2.49349 8.41892 2.02193C7.6849 1.55038 6.79902 1.37558 5.94089 1.53297C5.08275 1.69034 4.31656 2.16814 3.79764 2.86949C3.27871 3.57083 3.04589 4.44326 3.14635 5.30991C3.14635 5.30991 3.24198 5.86116 3.4376 6.17366" stroke="#F0EED0" stroke-width="1.2625" stroke-linecap="round" stroke-linejoin="round"/>
</g>
<path fill-rule="evenodd" clip-rule="evenodd" d="M10.0265 6.42958C10.107 6.36399 10.2081 6.32812 10.3125 6.32812C10.4169 6.32812 10.518 6.36399 10.5985 6.42958C11.1458 6.8788 11.6473 7.37984 12.0957 7.92552C12.7202 8.69211 13.3594 9.7324 13.3594 10.8204C13.3594 11.6181 13.0384 12.3831 12.467 12.9472C11.8956 13.5112 11.1206 13.8281 10.3125 13.8281C9.50441 13.8281 8.72944 13.5112 8.15804 12.9472C7.58664 12.3831 7.26562 11.6181 7.26562 10.8204C7.26562 9.7324 7.90471 8.69211 8.52931 7.92515C8.97763 7.37961 9.47894 6.8787 10.0261 6.42958H10.0265Z" fill="#F0EED0"/>
</g>
<defs>
<clipPath id="clip0_162_1048">
<rect width="15" height="15" fill="white"/>
</clipPath>
</defs>
</svg>
