<!-- Adapted from partly cloudy (colourful version)  -->

<svg width="16" height="16" viewBox="0 0 16 16" fill="none" xmlns="http://www.w3.org/2000/svg">
<path fill-rule="evenodd" clip-rule="evenodd" d="M13.7323 8.01355C13.9645 7.54159 14.0952 7.00861 14.0952 6.44444C14.0952 4.51145 12.5602 2.94444 10.6667 2.94444C9.7318 2.94444 8.88434 3.32641 8.26582 3.9458C7.65508 3.63412 6.98197 3.43084 6.27075 3.36066C7.23244 1.93477 8.84266 1 10.6667 1C13.6122 1 16 3.43756 16 6.44444C16 7.65 15.6161 8.76403 14.9665 9.66616C14.7079 9.00699 14.2776 8.43692 13.7323 8.01355Z" fill="url(#paint0_linear_809_1912)"/>
<path fill-rule="evenodd" clip-rule="evenodd" d="M11.4093 9.16665H9.52373C9.52373 8.7152 9.44838 8.28172 9.30979 7.8786C9.91558 7.46397 10.6444 7.2221 11.4286 7.2221C13.5325 7.2221 15.2381 8.96326 15.2381 11.111C15.2381 13.2588 13.5325 14.9999 11.4286 14.9999L5.71429 15C2.55837 15 0 12.3881 0 9.16649C0 5.9448 2.55838 3.33313 5.71429 3.33313C8.20731 3.33313 10.3275 4.96287 11.1081 7.23563C10.4462 7.2919 9.83215 7.52107 9.30979 7.8786C8.7891 6.36382 7.37602 5.27757 5.71429 5.27757C3.61035 5.27757 1.90476 7.01869 1.90476 9.16649C1.90476 11.3143 3.61035 13.0554 5.71429 13.0554L11.4286 13.0555C12.4805 13.0555 13.3333 12.1849 13.3333 11.111C13.3333 10.0371 12.4805 9.16657 11.4286 9.16657L11.4093 9.16665Z" fill="url(#paint1_linear_809_1912)"/>
<defs>
<linearGradient id="paint0_linear_809_1912" x1="11.1354" y1="1" x2="11.1354" y2="9.66616" gradientUnits="userSpaceOnUse">
<stop stop-color="#EFC977"/>
<stop offset="1" stop-color="#E07256"/>
</linearGradient>
<linearGradient id="paint1_linear_809_1912" x1="7.61905" y1="3.33313" x2="7.61905" y2="15" gradientUnits="userSpaceOnUse">
<stop stop-color="#B2D4F7"/>
<stop offset="1" stop-color="#D9E2F3"/>
</linearGradient>
</defs>
</svg>
