<svg width="40" height="40" viewBox="0 0 40 40" fill="none" xmlns="http://www.w3.org/2000/svg">
<path fill-rule="evenodd" clip-rule="evenodd" d="M18.75 2.5V6.25H21.25V2.5H18.75ZM25.7655 26.5821C27.5949 24.9784 28.75 22.624 28.75 20C28.75 15.1675 24.8325 11.25 20 11.25C15.1675 11.25 11.25 15.1675 11.25 20C11.25 20.1773 11.2553 20.3533 11.2657 20.5279C10.4097 20.8288 9.61061 21.2503 8.88876 21.772C8.79744 21.1948 8.75 20.603 8.75 20C8.75 13.7867 13.7867 8.75 20 8.75C26.2133 8.75 31.25 13.7867 31.25 20C31.25 23.0856 30.0077 25.8811 27.996 27.9136C27.3607 27.3254 26.6031 26.8672 25.7655 26.5821ZM33.75 18.75H37.5V21.25H33.75V18.75ZM34.5304 10.1675L31.2829 12.0425L32.5329 14.2075L35.7804 12.3325L34.5304 10.1675ZM25.7925 7.46726L27.6675 4.21966L29.8326 5.46966L27.9576 8.71726L25.7925 7.46726ZM10.1675 5.46966L12.0425 8.71726L14.2075 7.46726L12.3325 4.21966L10.1675 5.46966ZM7.46719 14.2075L4.21959 12.3325L5.46959 10.1675L8.71719 12.0425L7.46719 14.2075ZM6.25 18.75H2.5V21.25H6.25V18.75ZM34.5305 29.8325L31.2829 27.9575L32.5329 25.7925L35.7805 27.6675L34.5305 29.8325Z" fill="url(#paint0_linear_162_1021)"/>
<path fill-rule="evenodd" clip-rule="evenodd" d="M14.375 34.9998C14.4097 34.9998 14.4445 34.9995 14.4791 34.999H23.6665C23.6825 34.9993 23.6985 34.9995 23.7145 34.9998H23.75V34.9999C25.8211 34.9999 27.5 33.3209 27.5 31.2499C27.5 29.1788 25.8211 27.4999 23.75 27.4999C22.7882 27.4999 21.9111 27.8619 21.2474 28.4571C21.2526 28.347 21.2552 28.2364 21.2552 28.125C21.2552 27.2809 21.1031 26.4724 20.8247 25.7253C21.6975 25.2621 22.6931 24.9999 23.75 24.9999C27.2017 24.9999 30 27.7981 30 31.2499C30 34.7016 27.2017 37.4999 23.75 37.4999C23.7348 37.4999 23.7195 37.4998 23.7042 37.4998H14.4235V37.4996C14.4073 37.4996 14.3911 37.4998 14.375 37.4998C9.19734 37.4998 5 33.3024 5 28.1248C5 22.947 9.19734 18.7498 14.375 18.7498C18.4651 18.7498 21.9435 21.3689 23.2242 25.0216C22.3612 25.0935 21.5481 25.3406 20.8205 25.7274C19.8475 23.1125 17.3289 21.2498 14.375 21.2498C10.5781 21.2498 7.5 24.3278 7.5 28.1248C7.5 31.9216 10.5781 34.9998 14.375 34.9998Z" fill="url(#paint1_linear_162_1021)"/>
<defs>
<linearGradient id="paint0_linear_162_1021" x1="20" y1="2.5" x2="20" y2="29.8325" gradientUnits="userSpaceOnUse">
<stop stop-color="#EFC977"/>
<stop offset="1" stop-color="#E07256"/>
</linearGradient>
<linearGradient id="paint1_linear_162_1021" x1="17.5" y1="18.7498" x2="17.5" y2="37.4999" gradientUnits="userSpaceOnUse">
<stop stop-color="#B2D4F7"/>
<stop offset="1" stop-color="#D9E2F3"/>
</linearGradient>
</defs>
</svg>
