<svg width="40" height="40" viewBox="0 0 40 40" fill="none" xmlns="http://www.w3.org/2000/svg">
<path fill-rule="evenodd" clip-rule="evenodd" d="M22.0451 2.5V5.54391H24.5451V2.5H22.0451ZM37.5001 15.4549H34.4561V17.9549H37.5001V15.4549ZM32.3359 10.0419L34.972 8.51992L36.222 10.685L33.5859 12.207L32.3359 10.0419ZM29.3151 3.77806L27.7932 6.41416L29.9582 7.66416L31.4802 5.02806L29.3151 3.77806ZM16.6321 7.66416L15.1101 5.02806L17.2752 3.77806L18.7971 6.41416L16.6321 7.66416ZM30.192 16.7048C30.192 18.2005 29.7207 19.5861 28.9189 20.7215C29.8206 20.79 30.6789 21.0139 31.467 21.3664C32.2467 19.9902 32.692 18.3995 32.692 16.7048C32.692 11.4746 28.4521 7.2348 23.222 7.2348C19.4664 7.2348 16.2215 9.42097 14.6902 12.5901H14.7012C15.6237 12.5901 16.5212 12.6967 17.3821 12.8985C18.6262 10.9936 20.7771 9.7348 23.222 9.7348C27.0714 9.7348 30.192 12.8554 30.192 16.7048Z" fill="url(#paint0_linear_162_1024)"/>
<path fill-rule="evenodd" clip-rule="evenodd" d="M15.625 35L15.6764 34.9999V35H15.8714H28.7466H28.75C28.7517 35 28.7535 35 28.7554 35C32.1229 34.997 35 32.1434 35 28.4375C35 24.7297 32.1198 21.875 28.75 21.875C27.8373 21.875 26.9605 22.0844 26.1671 22.4635C26.0593 21.6049 25.8562 20.7773 25.5694 19.9924L25.5721 19.9913C24.0461 15.7619 20.1216 12.8125 15.625 12.8125C9.83894 12.8125 5 17.6959 5 23.9062C5 30.1166 9.83894 35 15.625 35ZM29.0517 37.4948C33.7445 37.33 37.5 33.338 37.5 28.4375C37.5 23.4324 33.5825 19.375 28.75 19.375C28.5021 19.375 28.2566 19.3856 28.0139 19.4066C26.2208 14.1104 21.3511 10.3125 15.625 10.3125C8.37626 10.3125 2.5 16.3986 2.5 23.9062C2.5 31.4139 8.37626 37.5 15.625 37.5C15.7073 37.5 15.7894 37.4993 15.8714 37.4976V37.5H28.7436C28.7457 37.5 28.7479 37.5 28.75 37.5C28.7521 37.5 28.7543 37.5 28.7564 37.5H29.0517V37.4948Z" fill="url(#paint1_linear_162_1024)"/>
<defs>
<linearGradient id="paint0_linear_162_1024" x1="26.0951" y1="2.5" x2="26.0951" y2="21.3664" gradientUnits="userSpaceOnUse">
<stop stop-color="#EFC977"/>
<stop offset="1" stop-color="#E07256"/>
</linearGradient>
<linearGradient id="paint1_linear_162_1024" x1="20" y1="10.3125" x2="20" y2="37.5" gradientUnits="userSpaceOnUse">
<stop stop-color="#B2D4F7"/>
<stop offset="1" stop-color="#D9E2F3"/>
</linearGradient>
</defs>
</svg>
