<!--

CC BY 4.0 License (https://creativecommons.org/licenses/by/4.0/)

The Font Awesome Free download is licensed under a Creative Commons
Attribution 4.0 International License and applies to all icons packaged
as SVG and JS file types.

This icon has been modified, with an increase in the width of the horizontal bars.

-->

<svg width="24" height="22" viewBox="0 0 24 22" fill="none" xmlns="http://www.w3.org/2000/svg">
<path d="M2.0625 2.06C1.65458 2.06 1.25581 2.18096 0.916637 2.40759C0.577461 2.63422 0.313105 2.95634 0.156999 3.33321C0.000893652 3.71009 -0.0399507 4.12479 0.0396313 4.52487C0.119213 4.92496 0.315647 5.29246 0.604093 5.58091C0.892539 5.86935 1.26004 6.06579 1.66013 6.14537C2.06021 6.22495 2.47491 6.18411 2.85179 6.028C3.22866 5.87189 3.55078 5.60754 3.77741 5.26836C4.00404 4.92918 4.125 4.53042 4.125 4.1225C4.125 3.57549 3.9077 3.05088 3.52091 2.66409C3.13412 2.2773 2.60951 2.06 2.0625 2.06ZM2.0625 8.935C1.65458 8.935 1.25581 9.05596 0.916637 9.28259C0.577461 9.50922 0.313105 9.83134 0.156999 10.2082C0.000893652 10.5851 -0.0399507 10.9998 0.0396313 11.3999C0.119213 11.8 0.315647 12.1675 0.604093 12.4559C0.892539 12.7444 1.26004 12.9408 1.66013 13.0204C2.06021 13.0999 2.47491 13.0591 2.85179 12.903C3.22866 12.7469 3.55078 12.4825 3.77741 12.1434C4.00404 11.8042 4.125 11.4054 4.125 10.9975C4.125 10.4505 3.9077 9.92588 3.52091 9.53909C3.13412 9.1523 2.60951 8.935 2.0625 8.935ZM2.0625 15.81C1.65458 15.81 1.25581 15.931 0.916637 16.1576C0.577461 16.3842 0.313105 16.7063 0.156999 17.0832C0.000893652 17.4601 -0.0399507 17.8748 0.0396313 18.2749C0.119213 18.675 0.315647 19.0425 0.604093 19.3309C0.892539 19.6194 1.26004 19.8158 1.66013 19.8954C2.06021 19.975 2.47491 19.9341 2.85179 19.778C3.22866 19.6219 3.55078 19.3575 3.77741 19.0184C4.00404 18.6792 4.125 18.2804 4.125 17.8725C4.125 17.3255 3.9077 16.8009 3.52091 16.4141C3.13412 16.0273 2.60951 15.81 2.0625 15.81Z" fill="#F5F8F2"/>
<path d="M6.875 10.2175C6.875 9.88612 7.14363 9.61749 7.475 9.61749H23.4C23.7314 9.61749 24 9.88612 24 10.2175V11.7675C24 12.0989 23.7314 12.3675 23.4 12.3675H7.475C7.14363 12.3675 6.875 12.0989 6.875 11.7675V10.2175Z" fill="#F5F8F2"/>
<path d="M6.875 3.3475C6.875 3.01613 7.14363 2.7475 7.475 2.7475H23.4C23.7314 2.7475 24 3.01613 24 3.3475V4.8975C24 5.22887 23.7314 5.4975 23.4 5.4975H7.475C7.14363 5.4975 6.875 5.22887 6.875 4.8975V3.3475Z" fill="#F5F8F2"/>
<path d="M6.875 17.0975C6.875 16.7661 7.14363 16.4975 7.475 16.4975H23.4C23.7314 16.4975 24 16.7661 24 17.0975V18.6475C24 18.9789 23.7314 19.2475 23.4 19.2475H7.475C7.14363 19.2475 6.875 18.9789 6.875 18.6475V17.0975Z" fill="#F5F8F2"/>
</svg>
