<svg width="40" height="40" viewBox="0 0 40 40" fill="none" xmlns="http://www.w3.org/2000/svg">
<path fill-rule="evenodd" clip-rule="evenodd" d="M14.4146 10.0699C14.8571 10.0237 15.3061 10 15.7604 10C21.8363 10 26.9576 14.2373 28.5262 20.0174C28.6519 20.0091 28.7781 20.0039 28.9051 20.0015C28.8535 20.0006 28.8018 20.0001 28.75 20.0001L28.708 20.0003V20H30.625H30.7002V19.9994C33.0817 19.9591 35 18.0161 35 15.625C35 13.2088 33.0412 11.25 30.625 11.25C29.8136 11.25 29.054 11.4708 28.4026 11.8556C28.4007 11.1572 28.2946 10.4833 28.0991 9.84856C27.1251 7.02684 24.4459 5 21.2931 5C18.0585 5 15.3223 7.13345 14.4146 10.0699ZM33.9707 21.6324C36.1076 23.2199 37.5 25.8163 37.5 28.75C37.5 33.5825 33.722 37.5 29.0616 37.5C28.9573 37.5 28.8534 37.498 28.75 37.4941V37.5H15.9589V37.4985C15.8929 37.4995 15.8266 37.5 15.7604 37.5C8.43686 37.5 2.5 31.3439 2.5 23.75C2.5 17.6179 6.37116 12.4234 11.7176 10.6507C12.4586 6.03007 16.4636 2.5 21.2931 2.5C25.4368 2.5 28.9734 5.09855 30.3624 8.75493C30.4495 8.75165 30.537 8.75 30.625 8.75C34.4219 8.75 37.5 11.828 37.5 15.625C37.5 18.2074 36.0761 20.4573 33.9707 21.6324ZM28.75 35H15.9589H15.815V34.9999L15.7604 35C9.90224 35 5 30.0494 5 23.75C5 17.4506 9.90224 12.5 15.7604 12.5C20.7299 12.5 25.0114 16.0625 26.1961 20.9889L26.1999 20.9874C26.3671 21.6709 26.4739 22.3796 26.5135 23.1069C27.2924 22.7165 28.159 22.5 29.0616 22.5C32.2566 22.5 35 25.212 35 28.75C35 32.2631 32.2949 34.9619 29.1286 34.9995V35H28.75Z" fill="url(#paint0_linear_162_1002)"/>
<defs>
<linearGradient id="paint0_linear_162_1002" x1="20" y1="2.5" x2="20" y2="37.5" gradientUnits="userSpaceOnUse">
<stop stop-color="#B2D4F7"/>
<stop offset="1" stop-color="#D9E2F3"/>
</linearGradient>
</defs>
</svg>
