<svg width="40" height="40" viewBox="0 0 40 40" fill="none" xmlns="http://www.w3.org/2000/svg">
<path fill-rule="evenodd" clip-rule="evenodd" d="M30.0003 29.9465C34.2191 29.4625 37.5003 25.7535 37.5003 21.25C37.5003 16.4175 33.7224 12.5 29.0619 12.5C28.8821 12.5 28.7036 12.5059 28.5266 12.5174C26.9579 6.7372 21.8365 2.5 15.7606 2.5C8.43718 2.5 2.50031 8.65609 2.50031 16.25C2.50031 22.6774 6.75328 28.0748 12.5003 29.5813V26.9715C8.19107 25.5364 5.0003 21.3321 5.0003 16.25C5.0003 9.95058 9.90255 5 15.7606 5C20.7301 5 25.0118 8.56255 26.1964 13.4889L26.2001 13.4874C26.3675 14.1709 26.4741 14.8796 26.5139 15.6069C27.2928 15.2165 28.1593 15 29.0619 15C32.2569 15 35.0003 17.712 35.0003 21.25C35.0003 24.4357 32.7759 26.9519 30.0003 27.4213V29.9465ZM16.8779 35.0026C17.1806 35.0026 17.5031 34.7401 17.503 34.32C17.5029 34.09 17.4239 33.6579 17.1798 33.021C17.0824 32.767 16.9686 32.5056 16.8433 32.2423C16.4694 33.0546 16.2523 33.7846 16.2524 34.32C16.2525 34.7401 16.5753 35.0026 16.8779 35.0026ZM15.3658 29.6965C16.1289 28.4128 16.8756 27.5 16.8756 27.5C16.8756 27.5 17.5876 28.4442 18.3321 29.7222C19.1479 31.1221 20.0025 32.9224 20.003 34.32C20.0035 36.0777 18.6048 37.5026 16.8786 37.5026C15.1526 37.5026 13.7529 36.0777 13.7524 34.32C13.7519 32.7862 14.5679 31.0386 15.3658 29.6965ZM25.003 30.57C25.0031 30.9901 24.6806 31.2526 24.3779 31.2526C24.0753 31.2526 23.7525 30.9901 23.7524 30.57C23.7523 30.0346 23.9694 29.3046 24.3433 28.4923C24.4686 28.7556 24.5824 29.017 24.6798 29.271C24.9239 29.9079 25.0029 30.34 25.003 30.57ZM24.3756 23.75C24.3756 23.75 23.6289 24.6628 22.8658 25.9465C22.0679 27.2886 21.2519 29.0362 21.2524 30.57C21.2529 32.3277 22.6526 33.7526 24.3786 33.7526C26.1048 33.7526 27.5035 32.3277 27.503 30.57C27.5025 29.1724 26.6479 27.3721 25.8321 25.9722C25.0876 24.6942 24.3756 23.75 24.3756 23.75Z" fill="url(#paint0_linear_162_1006)"/>
<defs>
<linearGradient id="paint0_linear_162_1006" x1="20.0003" y1="2.5" x2="20.0003" y2="37.5026" gradientUnits="userSpaceOnUse">
<stop stop-color="#95B6F6"/>
<stop offset="1" stop-color="#5193DE"/>
</linearGradient>
</defs>
</svg>
