<svg width="40" height="40" viewBox="0 0 40 40" fill="none" xmlns="http://www.w3.org/2000/svg">
<path fill-rule="evenodd" clip-rule="evenodd" d="M21.4604 20.5566L23.5405 21.9434L19.8361 27.5H26.1951L19.3471 36.9819L17.3204 35.5181L21.3057 30H15.1647L21.4604 20.5566Z" fill="url(#paint0_linear_162_1010)"/>
<path fill-rule="evenodd" clip-rule="evenodd" d="M12.5003 29.5813C6.75328 28.0748 2.50031 22.6774 2.50031 16.25C2.50031 8.65609 8.43718 2.5 15.7606 2.5C21.8365 2.5 26.9579 6.7372 28.5266 12.5174C28.7036 12.5059 28.8821 12.5 29.0619 12.5C33.7224 12.5 37.5003 16.4175 37.5003 21.25C37.5003 26.0825 33.7224 30 29.0619 30C28.9576 30 28.8538 29.998 28.7503 29.9941V27.5H29.129V27.4995C32.2953 27.4619 35.0003 24.7631 35.0003 21.25C35.0003 17.712 32.2569 15 29.0619 15C28.1593 15 27.2928 15.2165 26.5139 15.6069C26.4741 14.8796 26.3675 14.1709 26.2001 13.4874L26.1964 13.4889C25.0118 8.56255 20.7301 5 15.7606 5C9.90255 5 5.0003 9.95058 5.0003 16.25C5.0003 21.3321 8.19107 25.5364 12.5003 26.9715V29.5813Z" fill="url(#paint1_linear_162_1010)"/>
<defs>
<linearGradient id="paint0_linear_162_1010" x1="20.68" y1="20.5566" x2="20.68" y2="36.9819" gradientUnits="userSpaceOnUse">
<stop stop-color="#F5BD52"/>
<stop offset="1" stop-color="#F5DA79"/>
</linearGradient>
<linearGradient id="paint1_linear_162_1010" x1="20.0003" y1="2.5" x2="20.0003" y2="30" gradientUnits="userSpaceOnUse">
<stop stop-color="#95B6F6"/>
<stop offset="1" stop-color="#5193DE"/>
</linearGradient>
</defs>
</svg>
