<!--

Copyright 2015 IBM Corp.

Licensed under the Apache License, Version 2.0 (the "License");
you may not use this file except in compliance with the License.
You may obtain a copy of the License at

  http://www.apache.org/licenses/LICENSE-2.0

Unless required by applicable law or agreed to in writing, software
distributed under the License is distributed on an "AS IS" BASIS,
WITHOUT WARRANTIES OR CONDITIONS OF ANY KIND, either express or implied.
See the License for the specific language governing permissions and
limitations under the License.

-->

<svg width="24" height="24" viewBox="0 0 24 24" fill="none" xmlns="http://www.w3.org/2000/svg">
<g opacity="0.9">
<g clip-path="url(#clip0_73_3005)">
<mask id="mask0_73_3005" style="mask-type:alpha" maskUnits="userSpaceOnUse" x="0" y="0" width="24" height="24">
<path fill-rule="evenodd" clip-rule="evenodd" d="M24 0H0V24H18H24V18V0ZM24 18C24 14.6863 21.3137 12 18 12C14.6863 12 12 14.6863 12 18C12 21.3137 14.6863 24 18 24C21.3137 24 24 21.3137 24 18Z" fill="#FFFFFF"/>
</mask>
<g mask="url(#mask0_73_3005)">
<path d="M12 1.5C9.9233 1.5 7.89323 2.11581 6.16652 3.26957C4.4398 4.42332 3.09399 6.0632 2.29927 7.98183C1.50455 9.90045 1.29661 12.0116 1.70176 14.0485C2.1069 16.0853 3.10693 17.9562 4.57538 19.4246C6.04384 20.8931 7.91476 21.8931 9.95156 22.2982C11.9884 22.7034 14.0996 22.4955 16.0182 21.7007C17.9368 20.906 19.5767 19.5602 20.7304 17.8335C21.8842 16.1068 22.5 14.0767 22.5 12C22.4968 9.2162 21.3896 6.54733 19.4211 4.57889C17.4527 2.61044 14.7838 1.50318 12 1.5ZM3.01501 12.2955L4.01851 12.63L5.25001 14.4773V15.4395C5.25005 15.6384 5.32909 15.8291 5.46976 15.9698L7.50001 18V19.7828C6.17843 19.018 5.07327 17.9294 4.28863 16.6195C3.50399 15.3096 3.06569 13.8216 3.01501 12.2955ZM12 21C11.3512 20.9987 10.7044 20.927 10.071 20.7863L10.5 19.5L11.8538 16.116C11.8989 16.003 11.9158 15.8808 11.9031 15.7598C11.8905 15.6388 11.8485 15.5227 11.781 15.4215L10.7228 13.8338C10.6542 13.7311 10.5614 13.6469 10.4526 13.5887C10.3437 13.5304 10.2222 13.5 10.0988 13.5H6.40126L5.46526 12.0953L7.06051 10.5H8.25001V12H9.75001V9.9495L12.651 4.872L11.349 4.128L10.7078 5.25H8.65126L7.83751 4.02825C8.93087 3.45128 10.1325 3.10853 11.3657 3.02188C12.599 2.93523 13.8367 3.10658 15 3.525V6C15 6.19891 15.079 6.38968 15.2197 6.53033C15.3603 6.67098 15.5511 6.75 15.75 6.75H16.8488C16.9722 6.75002 17.0937 6.71957 17.2026 6.66135C17.3114 6.60313 17.4042 6.51894 17.4728 6.41625L18.1305 5.42925C18.9871 6.2282 19.68 7.18627 20.1705 8.25H17.115C16.9417 8.25011 16.7738 8.31024 16.6398 8.42017C16.5058 8.5301 16.414 8.68304 16.38 8.853L15.8378 12.2055C15.8121 12.3633 15.8375 12.5252 15.9104 12.6676C15.9833 12.8099 16.0997 12.9253 16.2428 12.9968L18.75 14.25L19.2638 17.292C18.4313 18.4392 17.3392 19.3732 16.0768 20.0176C14.8144 20.6621 13.4174 20.9987 12 21Z" fill="#F5F8F2"/>
</g>
</g>
<path d="M18 15V18M18 21V18M18 18H15M18 18H21" stroke="#F5F8F2" stroke-width="1.8" stroke-linecap="round"/>
</g>
<defs>
<clipPath id="clip0_73_3005">
<rect width="24" height="24" fill="white"/>
</clipPath>
</defs>
</svg>
