<!--

Copyright 2015 IBM Corp.

Licensed under the Apache License, Version 2.0 (the "License");
you may not use this file except in compliance with the License.
You may obtain a copy of the License at

  http://www.apache.org/licenses/LICENSE-2.0

Unless required by applicable law or agreed to in writing, software
distributed under the License is distributed on an "AS IS" BASIS,
WITHOUT WARRANTIES OR CONDITIONS OF ANY KIND, either express or implied.
See the License for the specific language governing permissions and
limitations under the License.

-->

<svg width="30" height="30" viewBox="0 0 30 30" fill="none" xmlns="http://www.w3.org/2000/svg">
<g opacity="0.9">
<mask id="mask0_162_995" style="mask-type:alpha" maskUnits="userSpaceOnUse" x="0" y="0" width="30" height="30">
<path fill-rule="evenodd" clip-rule="evenodd" d="M30 0H0V30H22.5H30V22.5V0ZM30 22.5C30 18.3579 26.6421 15 22.5 15C18.3579 15 15 18.3579 15 22.5C15 26.6421 18.3579 30 22.5 30C26.6421 30 30 26.6421 30 22.5Z" fill="white"/>
</mask>
<g mask="url(#mask0_162_995)">
<path d="M15 1.875C12.4041 1.875 9.86654 2.64476 7.70815 4.08696C5.54975 5.52915 3.86749 7.579 2.87409 9.97729C1.88069 12.3756 1.62076 15.0145 2.1272 17.5606C2.63363 20.1066 3.88366 22.4453 5.71923 24.2808C7.5548 26.1164 9.89345 27.3664 12.4395 27.8728C14.9855 28.3793 17.6245 28.1194 20.0228 27.1259C22.421 26.1325 24.4709 24.4502 25.913 22.2919C27.3553 20.1335 28.125 17.5959 28.125 15C28.121 11.5203 26.737 8.18416 24.2764 5.72361C21.8159 3.26305 18.4798 1.87897 15 1.875ZM3.76876 15.3694L5.02314 15.7875L6.56251 18.0966V19.2994C6.56256 19.548 6.66136 19.7864 6.8372 19.9622L9.37501 22.5V24.7285C7.72304 23.7725 6.34159 22.4117 5.36079 20.7744C4.37999 19.137 3.83211 17.277 3.76876 15.3694ZM15 26.25C14.189 26.2484 13.3805 26.1588 12.5888 25.9829L13.125 24.375L14.8173 20.145C14.8736 20.0037 14.8948 19.851 14.8789 19.6997C14.8631 19.5485 14.8106 19.4034 14.7263 19.2769L13.4035 17.2923C13.3178 17.1639 13.2018 17.0586 13.0658 16.9859C12.9296 16.913 12.7778 16.875 12.6235 16.875H8.00158L6.83158 15.1191L8.82564 13.125H10.3125V15H12.1875V12.4369L15.8138 6.09L14.1863 5.16L13.3848 6.5625H10.8141L9.79689 5.03531C11.1636 4.3141 12.6656 3.88566 14.2071 3.77735C15.7488 3.66904 17.2959 3.88323 18.75 4.40625V7.5C18.75 7.74864 18.8488 7.9871 19.0246 8.16291C19.2004 8.33873 19.4389 8.4375 19.6875 8.4375H21.061C21.2153 8.43752 21.3671 8.39946 21.5033 8.32669C21.6393 8.25391 21.7553 8.14868 21.841 8.02031L22.6631 6.78656C23.7339 7.78525 24.6 8.98284 25.2131 10.3125H21.3938C21.1771 10.3126 20.9673 10.3878 20.7998 10.5252C20.6323 10.6626 20.5175 10.8538 20.475 11.0662L19.7973 15.2569C19.7651 15.4541 19.7969 15.6565 19.888 15.8345C19.9791 16.0124 20.1246 16.1566 20.3035 16.246L23.4375 17.8125L24.0798 21.615C23.0391 23.049 21.674 24.2165 20.096 25.022C18.518 25.8276 16.7718 26.2484 15 26.25Z" fill="#F5F8F2"/>
</g>
<path d="M22.5 18.75V22.5M22.5 26.25V22.5M22.5 22.5H18.75M22.5 22.5H26.25" stroke="#F5F8F2" stroke-width="2.25" stroke-linecap="round"/>
</g>
</svg>
