<!--

CC BY 4.0 License (https://creativecommons.org/licenses/by/4.0/)

The Font Awesome Free download is licensed under a Creative Commons
Attribution 4.0 International License and applies to all icons packaged
as SVG and JS file types.

This icon has been modified, with an increase in the width of the horizontal bars.

-->

<svg width="30" height="29" viewBox="0 0 30 29" fill="none" xmlns="http://www.w3.org/2000/svg">
<path d="M2.57812 3.35315C2.06822 3.35315 1.56976 3.50435 1.1458 3.78764C0.721826 4.07092 0.391381 4.47357 0.196249 4.94466C0.00111707 5.41575 -0.0499384 5.93412 0.0495391 6.43424C0.149016 6.93434 0.394559 7.39372 0.755116 7.75427C1.11567 8.11484 1.57505 8.36037 2.07516 8.45986C2.57526 8.55934 3.09364 8.50827 3.56474 8.31315C4.03582 8.11801 4.43848 7.78757 4.72176 7.3636C5.00505 6.93962 5.15625 6.44117 5.15625 5.93127C5.15625 5.24751 4.88463 4.59175 4.40114 4.10826C3.91764 3.62476 3.26189 3.35315 2.57812 3.35315ZM2.57812 11.9469C2.06822 11.9469 1.56976 12.0981 1.1458 12.3814C0.721826 12.6646 0.391381 13.0673 0.196249 13.5384C0.00111707 14.0095 -0.0499384 14.5279 0.0495391 15.028C0.149016 15.5281 0.394559 15.9875 0.755116 16.348C1.11567 16.7085 1.57505 16.9542 2.07516 17.0537C2.57526 17.153 3.09364 17.102 3.56474 16.9069C4.03582 16.7118 4.43848 16.3813 4.72176 15.9574C5.00505 15.5334 5.15625 15.0349 5.15625 14.525C5.15625 13.8413 4.88463 13.1855 4.40114 12.702C3.91764 12.2185 3.26189 11.9469 2.57812 11.9469ZM2.57812 20.5407C2.06822 20.5407 1.56976 20.6919 1.1458 20.9751C0.721826 21.2584 0.391381 21.661 0.196249 22.1321C0.00111707 22.6033 -0.0499384 23.1217 0.0495391 23.6218C0.149016 24.1219 0.394559 24.5813 0.755116 24.9418C1.11567 25.3023 1.57505 25.5479 2.07516 25.6474C2.57526 25.7468 3.09364 25.6958 3.56474 25.5006C4.03582 25.3055 4.43848 24.975 4.72176 24.5512C5.00505 24.1272 5.15625 23.6287 5.15625 23.1188C5.15625 22.435 4.88463 21.7793 4.40114 21.2958C3.91764 20.8123 3.26189 20.5407 2.57812 20.5407ZM26.6406 21.4H9.45312C9.2252 21.4 9.00662 21.4905 8.84546 21.6518C8.68429 21.8129 8.59375 22.0315 8.59375 22.2594V23.9781C8.59375 24.206 8.68429 24.4246 8.84546 24.5858C9.00662 24.747 9.2252 24.8375 9.45312 24.8375H26.6406C26.8685 24.8375 27.0871 24.747 27.2482 24.5858C27.4095 24.4246 27.5 24.206 27.5 23.9781V22.2594C27.5 22.0315 27.4095 21.8129 27.2482 21.6518C27.0871 21.4905 26.8685 21.4 26.6406 21.4ZM26.6406 4.21252H9.45312C9.2252 4.21252 9.00662 4.30306 8.84546 4.46422C8.68429 4.62539 8.59375 4.84397 8.59375 5.0719V6.79065C8.59375 7.01856 8.68429 7.23715 8.84546 7.39831C9.00662 7.55947 9.2252 7.65002 9.45312 7.65002H26.6406C26.8685 7.65002 27.0871 7.55947 27.2482 7.39831C27.4095 7.23715 27.5 7.01856 27.5 6.79065V5.0719C27.5 4.84397 27.4095 4.62539 27.2482 4.46422C27.0871 4.30306 26.8685 4.21252 26.6406 4.21252ZM26.6406 12.8063H9.45312C9.2252 12.8063 9.00662 12.8968 8.84546 13.058C8.68429 13.2191 8.59375 13.4378 8.59375 13.6656V15.3844C8.59375 15.6123 8.68429 15.8309 8.84546 15.992C9.00662 16.1533 9.2252 16.2438 9.45312 16.2438H26.6406C26.8685 16.2438 27.0871 16.1533 27.2482 15.992C27.4095 15.8309 27.5 15.6123 27.5 15.3844V13.6656C27.5 13.4378 27.4095 13.2191 27.2482 13.058C27.0871 12.8968 26.8685 12.8063 26.6406 12.8063Z" fill="#F5F8F2"/>
<path d="M29.125 12.8H13.375C12.8918 12.8 12.5 13.1918 12.5 13.675V15.3625C12.5 15.8458 12.8918 16.2375 13.375 16.2375H29.125C29.6082 16.2375 30 15.8458 30 15.3625V13.675C30 13.1918 29.6082 12.8 29.125 12.8Z" fill="#F5F8F2"/>
<path d="M29.125 21.4H13.375C12.8918 21.4 12.5 21.7918 12.5 22.275V23.9625C12.5 24.4458 12.8918 24.8375 13.375 24.8375H29.125C29.6082 24.8375 30 24.4458 30 23.9625V22.275C30 21.7918 29.6082 21.4 29.125 21.4Z" fill="#F5F8F2"/>
<path d="M29.125 4.21252H13.375C12.8918 4.21252 12.5 4.60428 12.5 5.08752V6.77502C12.5 7.25827 12.8918 7.65002 13.375 7.65002H29.125C29.6082 7.65002 30 7.25827 30 6.77502V5.08752C30 4.60428 29.6082 4.21252 29.125 4.21252Z" fill="#F5F8F2"/>
</svg>
