<!--

CC BY 4.0 License (https://creativecommons.org/licenses/by/4.0/)

The Font Awesome Free download is licensed under a Creative Commons
Attribution 4.0 International License and applies to all icons packaged
as SVG and JS file types.

This icon has been modified, with an increase in the width of the horizontal bars.

-->

<svg width="24" height="23" viewBox="0 0 24 23" fill="none" xmlns="http://www.w3.org/2000/svg">
<g clip-path="url(#clip0_73_2910)">
<path d="M2.0625 2.6825C1.65458 2.6825 1.25581 2.80346 0.916637 3.03009C0.577461 3.25672 0.313105 3.57884 0.156999 3.95571C0.000893652 4.33258 -0.0399507 4.74728 0.0396313 5.14737C0.119213 5.54745 0.315647 5.91496 0.604093 6.2034C0.892539 6.49185 1.26004 6.68828 1.66013 6.76787C2.06021 6.84745 2.47491 6.8066 2.85179 6.6505C3.22866 6.49439 3.55078 6.23004 3.77741 5.89086C4.00404 5.55168 4.125 5.15292 4.125 4.745C4.125 4.19799 3.9077 3.67338 3.52091 3.28659C3.13411 2.89979 2.60951 2.6825 2.0625 2.6825ZM2.0625 9.5575C1.65458 9.5575 1.25581 9.67846 0.916637 9.90509C0.577461 10.1317 0.313105 10.4538 0.156999 10.8307C0.000893652 11.2076 -0.0399507 11.6223 0.0396313 12.0224C0.119213 12.4225 0.315647 12.79 0.604093 13.0784C0.892539 13.3668 1.26004 13.5633 1.66013 13.6429C2.06021 13.7224 2.47491 13.6816 2.85179 13.5255C3.22866 13.3694 3.55078 13.105 3.77741 12.7659C4.00404 12.4267 4.125 12.0279 4.125 11.62C4.125 11.073 3.9077 10.5484 3.52091 10.1616C3.13411 9.77479 2.60951 9.5575 2.0625 9.5575ZM2.0625 16.4325C1.65458 16.4325 1.25581 16.5535 0.916637 16.7801C0.577461 17.0067 0.313105 17.3288 0.156999 17.7057C0.000893652 18.0826 -0.0399507 18.4973 0.0396313 18.8974C0.119213 19.2975 0.315647 19.665 0.604093 19.9534C0.892539 20.2418 1.26004 20.4383 1.66013 20.5179C2.06021 20.5974 2.47491 20.5566 2.85179 20.4005C3.22866 20.2444 3.55078 19.98 3.77741 19.6409C4.00404 19.3017 4.125 18.9029 4.125 18.495C4.125 17.948 3.9077 17.4234 3.52091 17.0366C3.13411 16.6498 2.60951 16.4325 2.0625 16.4325ZM21.3125 17.12H7.5625C7.38016 17.12 7.2053 17.1924 7.07637 17.3214C6.94743 17.4503 6.875 17.6252 6.875 17.8075V19.1825C6.875 19.3648 6.94743 19.5397 7.07637 19.6686C7.2053 19.7976 7.38016 19.87 7.5625 19.87H21.3125C21.4948 19.87 21.6697 19.7976 21.7986 19.6686C21.9276 19.5397 22 19.3648 22 19.1825V17.8075C22 17.6252 21.9276 17.4503 21.7986 17.3214C21.6697 17.1924 21.4948 17.12 21.3125 17.12ZM21.3125 3.37H7.5625C7.38016 3.37 7.2053 3.44243 7.07637 3.57136C6.94743 3.70029 6.875 3.87516 6.875 4.0575V5.4325C6.875 5.61483 6.94743 5.7897 7.07637 5.91863C7.2053 6.04756 7.38016 6.12 7.5625 6.12H21.3125C21.4948 6.12 21.6697 6.04756 21.7986 5.91863C21.9276 5.7897 22 5.61483 22 5.4325V4.0575C22 3.87516 21.9276 3.70029 21.7986 3.57136C21.6697 3.44243 21.4948 3.37 21.3125 3.37ZM21.3125 10.245H7.5625C7.38016 10.245 7.2053 10.3174 7.07637 10.4464C6.94743 10.5753 6.875 10.7502 6.875 10.9325V12.3075C6.875 12.4898 6.94743 12.6647 7.07637 12.7936C7.2053 12.9226 7.38016 12.995 7.5625 12.995H21.3125C21.4948 12.995 21.6697 12.9226 21.7986 12.7936C21.9276 12.6647 22 12.4898 22 12.3075V10.9325C22 10.7502 21.9276 10.5753 21.7986 10.4464C21.6697 10.3174 21.4948 10.245 21.3125 10.245Z" fill="#F5F8F2"/>
</g>
<rect x="10" y="10.24" width="14" height="2.75" rx="0.7" fill="#F5F8F2"/>
<rect x="10" y="17.12" width="14" height="2.75" rx="0.7" fill="#F5F8F2"/>
<rect x="10" y="3.37" width="14" height="2.75" rx="0.7" fill="#F5F8F2"/>
<defs>
<clipPath id="clip0_73_2910">
<rect width="22" height="22" fill="white" transform="translate(0 0.619995)"/>
</clipPath>
</defs>
</svg>
