<!--

Copyright 2019 Material Design Icons

Licensed under the Apache License, Version 2.0 (the "License");
you may not use this file except in compliance with the License.
You may obtain a copy of the License at

  http://www.apache.org/licenses/LICENSE-2.0

Unless required by applicable law or agreed to in writing, software
distributed under the License is distributed on an "AS IS" BASIS,
WITHOUT WARRANTIES OR CONDITIONS OF ANY KIND, either express or implied.
See the License for the specific language governing permissions and
limitations under the License.

-->

<svg width="20" height="20" viewBox="0 0 20 20" fill="none" xmlns="http://www.w3.org/2000/svg">
<path d="M9.16664 15C9.16664 15.9168 8.41664 16.6668 7.49998 16.6668C6.58331 16.6668 5.83331 15.9168 5.83331 15C5.83331 14.0834 6.58331 13.3334 7.49998 13.3334C8.41664 13.3334 9.16664 14.0834 9.16664 15ZM7.49998 8.33337C6.58331 8.33337 5.83331 9.08337 5.83331 10C5.83331 10.9167 6.58331 11.6667 7.49998 11.6667C8.41664 11.6667 9.16664 10.9167 9.16664 10C9.16664 9.08337 8.41664 8.33337 7.49998 8.33337ZM7.49998 3.33337C6.58331 3.33337 5.83331 4.08337 5.83331 5.00004C5.83331 5.9167 6.58331 6.6667 7.49998 6.6667C8.41664 6.6667 9.16664 5.9167 9.16664 5.00004C9.16664 4.08337 8.41664 3.33337 7.49998 3.33337ZM12.5 6.6667C13.4167 6.6667 14.1667 5.9167 14.1667 5.00004C14.1667 4.08337 13.4167 3.33337 12.5 3.33337C11.5833 3.33337 10.8333 4.08337 10.8333 5.00004C10.8333 5.9167 11.5833 6.6667 12.5 6.6667ZM12.5 8.33337C11.5833 8.33337 10.8333 9.08337 10.8333 10C10.8333 10.9167 11.5833 11.6667 12.5 11.6667C13.4167 11.6667 14.1667 10.9167 14.1667 10C14.1667 9.08337 13.4167 8.33337 12.5 8.33337ZM12.5 13.3334C11.5833 13.3334 10.8333 14.0834 10.8333 15C10.8333 15.9168 11.5833 16.6668 12.5 16.6668C13.4167 16.6668 14.1667 15.9168 14.1667 15C14.1667 14.0834 13.4167 13.3334 12.5 13.3334Z" fill="#F5F8F2"/>
</svg>
