<svg width="50" height="60" viewBox="0 0 50 60" fill="none" xmlns="http://www.w3.org/2000/svg">
<path d="M40.5084 23.424C43.6974 25.6334 45.2919 26.7382 45.8525 28.1178C46.3429 29.3247 46.3429 30.6754 45.8525 31.8823C45.2919 33.2619 43.6974 34.3667 40.5084 36.576L25.056 47.2818C20.9891 50.0993 18.9557 51.5082 17.2645 51.4284C15.7916 51.3589 14.4245 50.6429 13.5287 49.4718C12.5 48.127 12.5 45.6533 12.5 40.7058V19.2943C12.5 14.3468 12.5 11.873 13.5287 10.5282C14.4246 9.35712 15.7916 8.64114 17.2645 8.57169C18.9557 8.49195 20.9891 9.90072 25.056 12.7183L40.5084 23.424Z" fill="#F0EED0"/>
</svg>
