<svg width="40" height="48" viewBox="0 0 40 48" fill="none" xmlns="http://www.w3.org/2000/svg">
<path d="M32.4067 18.7392C34.9579 20.5067 36.2335 21.3905 36.682 22.4942C37.0743 23.4597 37.0743 24.5403 36.682 25.5058C36.2335 26.6095 34.9579 27.4933 32.4067 29.2608L20.0448 37.8254C16.7913 40.0794 15.1646 41.2065 13.8116 41.1427C12.6333 41.0871 11.5396 40.5143 10.823 39.5774C10 38.5016 10 36.5226 10 32.5646L10 15.4354C10 11.4774 10 9.49839 10.823 8.42257C11.5397 7.48567 12.6333 6.91288 13.8116 6.85732C15.1646 6.79353 16.7913 7.92055 20.0448 10.1746L32.4067 18.7392Z" fill="#F0EED0"/>
</svg>
